<svg width="1530px" height="331px" viewBox="0 0 1530 331" version="1.1" xmlns="http://www.w3.org/2000/svg" xmlns:xlink="http://www.w3.org/1999/xlink">
    <path d="M386.68466,243.589 L386.68466,123.98938 L385.78834,123.98938 C381.56621,127.89308 365.82165,128.22331 359.14644,128.22331 L347.60043,128.22331 L347.60043,129.20218 C360.96266,137.38699 359.09926,149.4873 359.09926,164.5832 L359.14646,215.1898 C359.14646,240.5109 334.2736,258.2721 314.22436,258.2721 C287.87729,258.2721 276.88559,239.5084 276.88559,209.2694 L276.88559,123.98938 L276.00153,123.98938 C271.73222,127.89308 255.91691,128.22331 249.26528,128.22331 L237.80183,128.22331 L237.80183,129.20218 C251.16406,137.38699 249.31245,149.4873 249.31245,164.5832 L249.31245,215.0247 C249.31245,261.1852 269.33811,283.1214 305.16729,283.1214 C326.37231,283.1214 348.19061,275.6088 359.14693,257.5999 L359.14693,279.43 L398.19578,279.43 L398.19578,278.4275 C384.90431,270.9032 386.68515,258.7203 386.68515,243.589" id="path3076" fill="#000000"></path>
    <path d="M447.30065,179.6508 C450.95669,159.10622 466.12335,146.03883 486.45555,146.03883 C508.3564,146.03883 522.3202,156.81824 525.65781,179.6508 L447.30065,179.6508 L447.30065,179.6508 Z M557.51252,198.7094 C558.72727,156.48802 530.46963,124.6451 489.20348,124.6451 C443.96304,124.6451 413.32308,157.49048 413.32308,203.0023 C413.32308,248.8561 448.82203,283.7653 500.41926,283.7653 C514.71319,283.7653 529.25488,281.501 542.35765,275.6985 L557.51252,244.9052 L556.6162,244.9052 C542.61711,256.7696 525.03275,262.3952 506.83502,262.3952 C472.53902,262.3952 446.71097,238.9494 446.07411,198.7094 L557.51252,198.7094 L557.51252,198.7094 Z" id="path3080" fill="#000000"></path>
    <path d="M581.5786,54.50332 C588.87888,54.50332 603.71532,54.05516 608.17333,49.64433 L609.06965,49.64433 L609.06965,256.7884 C617.26625,259.0528 625.67514,260.6803 634.11941,260.6803 C667.30681,260.6803 686.30641,237.5057 686.30641,205.1557 C686.30641,173.43072 671.54073,148.97064 641.0423,148.97064 C631.40686,148.97064 623.87071,151.58884 615.74487,156.15299 L632.00834,128.26095 C638.93123,125.60737 646.16075,124.64029 653.42565,124.64029 C687.816,124.64029 717.0879,154.47829 717.0879,199.2707 C717.0879,250.5849 682.37912,283.7134 627.47957,283.7134 C606.97037,283.7134 587.27494,280.0927 572.42671,277.8165 L572.42671,276.8258 C582.45133,272.2027 581.51963,261.3525 581.51963,250.5849 L581.51963,99.99152 C581.51963,84.88382 583.35944,63.72597 570.31564,55.4822 L570.31564,54.50332 L581.5786,54.50332 L581.5786,54.50332 Z" id="path3084" fill="#000000"></path>
    <path d="M770.979,179.6508 C774.6115,159.10622 789.8017,146.03883 810.1458,146.03883 C831.9995,146.03883 845.9396,156.81824 849.2772,179.6508 L770.979,179.6508 L770.979,179.6508 Z M881.1437,198.7094 C882.3703,156.48802 854.1598,124.6451 812.8466,124.6451 C767.6414,124.6451 736.9779,157.49048 736.9779,203.0023 C736.9779,248.8561 772.465,283.7653 824.0977,283.7653 C838.3681,283.7653 852.9333,281.501 865.9889,275.6985 L881.1437,244.9052 L880.2361,244.9052 C866.296,256.7696 848.6644,262.3952 830.4668,262.3952 C796.1472,262.3952 770.3427,238.9494 769.753,198.7094 L881.1442,198.7094 L881.1437,198.7094 Z" id="path3088" fill="#000000"></path>
    <path d="M1016.9302,162.16776 L1016.0339,162.16776 C1007.2358,151.30579 992.6589,146.03402 978.99,146.03402 C949.5176,146.03402 928.3244,168.40661 928.3244,199.6009 C928.3244,237.3878 957.7496,262.3904 991.4323,262.3904 C1006.941,262.3904 1023.9121,255.8213 1035.7883,246.2566 L1036.6724,246.2566 L1020.8806,277.3094 C1008.1317,282.4868 994.1562,283.7723 980.7822,283.7723 C934.0438,283.7723 897.5188,250.8798 897.5188,208.1749 C897.5188,151.6596 938.3131,124.64029 984.1316,124.64029 C995.0643,124.64029 1006.2919,125.9376 1016.9298,128.53221 L1016.9298,162.16776 L1016.9302,162.16776 Z" id="path3092" fill="#000000"></path>
    <path d="M519.6453,97.52428 L519.6453,64.6789 C499.72579,73.58312 481.26869,90.24758 468.9443,106.48747 L468.9443,119.2954 C498.48745,99.37589 519.6453,98.43239 519.6453,97.52428" id="path3096" fill="#000000"></path>
    <path d="M112.85549,261.1827 C67.01348,261.1827 35.12339,209.4911 35.12339,165.52424 L35.12339,160.60628 C35.70081,118.03112 63.26309,78.10954 111.3341,78.10954 C161.96425,78.10954 188.02826,125.98005 188.46463,171.30314 L188.46463,176.0442 C188.46463,224.3747 158.41435,261.1827 112.85549,261.1827 L112.85549,261.1827 Z M269.9825,311.4591 C236.12286,317.014 203.6077,306.3407 169.01686,266.7847 C202.42834,250.0259 223.10265,208.2645 223.10265,169.47512 L223.10265,164.63971 C222.45352,98.26492 172.61393,54.45143 113.18571,54.45143 C53.61587,54.45143 0.98071,100.08115 0.52075,166.97486 L0.52075,171.46825 C0.52075,236.5575 48.82764,284.8408 107.99649,284.8408 C116.48794,284.8408 124.69633,283.5435 132.90473,281.5622 C171.67044,317.8985 206.24949,333.3482 236.08748,329.7629 C250.27527,328.0882 265.22965,322.4155 274.22822,310.7397 L269.9825,311.4587 L269.9825,311.4591 Z" id="path3100" fill="#000000"></path>
    <path d="M1108.4149,112.91389 L1292.3726,112.91389 L1292.3726,0.16638 L1108.4149,0.16638 L1108.4149,112.91389 L1108.4149,112.91389 Z M1245.2569,65.03158 C1243.0279,72.03702 1239.1242,74.38396 1238.0156,74.38396 C1238.0156,74.38396 1239.82,66.69449 1234.2652,62.74361 C1229.0288,59.05219 1222.5541,61.29299 1219.5585,65.69203 C1216.7398,69.91416 1216.2916,75.64589 1216.2916,75.64589 L1225.8799,75.64589 L1225.8799,82.73388 L1206.609,82.73388 C1206.609,82.73388 1207.0921,92.73492 1217.6479,91.75604 C1217.6479,91.75604 1216.3742,99.6578 1206.609,95.51822 C1206.609,95.51822 1207.0921,103.82097 1200.3937,107.93696 C1193.6949,103.82097 1194.2139,95.51822 1194.2139,95.51822 C1184.4487,99.6578 1183.1278,91.75604 1183.1278,91.75604 C1193.6949,92.73492 1194.2139,82.73388 1194.2139,82.73388 L1174.943,82.73388 L1174.943,75.64589 L1184.5195,75.64589 C1184.5195,75.64589 1184.0826,69.91416 1181.2408,65.69203 C1178.2334,61.29299 1171.7705,59.05219 1166.5577,62.74361 C1160.9911,66.69449 1162.8073,74.38396 1162.8073,74.38396 C1161.7341,74.38396 1157.795,72.03702 1155.566,65.03158 C1151.391,51.71652 1164.541,38.8968 1177.8796,46.30323 C1187.2674,51.49244 1191.1475,63.22715 1191.1475,75.64589 L1196.266,75.64589 C1196.1008,76.58938 1197.4453,66.36426 1195.4404,58.73376 C1193.9898,53.49737 1192.1382,47.96613 1188.9421,41.30271 C1186.1352,35.51202 1185.1209,25.75865 1191.0178,18.42298 C1196.0537,12.07799 1199.0375,8.55168 1200.3937,6.03963 C1201.75,8.55168 1204.7574,12.07799 1209.8405,18.42298 C1215.7019,25.75865 1214.6641,35.51202 1211.8572,41.30271 C1208.6847,47.96613 1206.8331,53.49737 1205.4061,58.73376 C1203.3775,66.36426 1204.722,76.58938 1204.5682,75.64589 L1209.6513,75.64589 C1209.6513,63.22715 1213.555,51.49244 1222.9074,46.30323 C1236.246,38.8968 1249.4078,51.71652 1245.2564,65.03158 L1245.2569,65.03158 Z" id="path3150" fill="#1A64B7"></path>
    <path d="M1345.9512,112.91389 L1529.9915,112.91389 L1529.9915,0.16638 L1345.9512,0.16638 L1345.9512,112.91389 L1345.9512,112.91389 Z M1482.7814,65.03158 C1480.5642,72.03702 1476.6487,74.38396 1475.5519,74.38396 C1475.5519,74.38396 1477.3327,66.69449 1471.8251,62.74361 C1466.5533,59.05219 1460.1022,61.29299 1457.0712,65.69203 C1454.2879,69.91416 1453.8279,75.64589 1453.8279,75.64589 L1463.4398,75.64589 L1463.4398,82.73388 L1444.1335,82.73388 C1444.1335,82.73388 1444.6175,92.73492 1455.2314,91.75604 C1455.2314,91.75604 1453.9341,99.6578 1444.1335,95.51822 C1444.1335,95.51822 1444.6175,103.82097 1437.9419,107.93696 C1431.2313,103.82097 1431.7384,95.51822 1431.7384,95.51822 C1421.9732,99.6578 1420.6759,91.75604 1420.6759,91.75604 C1431.2313,92.73492 1431.7384,82.73388 1431.7384,82.73388 L1412.5147,82.73388 L1412.5147,75.64589 L1422.0912,75.64589 C1422.0912,75.64589 1421.643,69.91416 1418.7653,65.69203 C1415.7698,61.29299 1409.295,59.05219 1404.1176,62.74361 C1398.5156,66.69449 1400.3672,74.38396 1400.3672,74.38396 C1399.2586,74.38396 1395.3195,72.03702 1393.1377,65.03158 C1388.9156,51.71652 1402.0773,38.8968 1415.4277,46.30323 C1424.8273,51.49244 1428.672,63.22715 1428.672,75.64589 L1433.8023,75.64589 C1433.673,76.58938 1434.9698,66.36426 1432.9645,58.73376 C1431.5138,53.49737 1429.674,47.96613 1426.4661,41.30271 C1423.6592,35.51202 1422.645,25.75865 1428.5418,18.42298 C1433.5895,12.07799 1436.5851,8.55168 1437.9414,6.03963 C1439.2505,8.55168 1442.3522,12.07799 1447.3645,18.42298 C1453.1906,25.75865 1452.1881,35.51202 1449.393,41.30271 C1446.2559,47.96613 1444.3571,53.49737 1442.9301,58.73376 C1440.9016,66.36426 1442.2583,76.58938 1442.1281,75.64589 L1447.2112,75.64589 C1447.2112,63.22715 1451.0795,51.49244 1460.4083,46.30323 C1473.7588,38.8968 1486.9205,51.71652 1482.7809,65.03158 L1482.7814,65.03158 Z" id="path3152" fill="#1A64B7"></path>
    <path d="M1108.4149,279.3108 L1292.3726,279.3108 L1292.3726,166.62228 L1108.4149,166.62228 L1108.4149,279.3108 L1108.4149,279.3108 Z M1245.2569,231.4521 C1243.0279,238.4457 1239.1242,240.7809 1238.0156,240.7809 C1238.0156,240.7809 1239.82,233.1268 1234.2652,229.1995 C1229.0288,225.5317 1222.5541,227.7607 1219.5585,232.1007 C1216.7398,236.3347 1216.2916,242.0664 1216.2916,242.0664 L1225.8799,242.0664 L1225.8799,249.1544 L1206.609,249.1544 C1206.609,249.1544 1207.0921,259.1554 1217.6479,258.2119 C1217.6479,258.2119 1216.3742,266.0783 1206.609,261.9387 C1206.609,261.9387 1207.0921,270.2061 1200.3937,274.3575 C1193.6949,270.2061 1194.2139,261.9387 1194.2139,261.9387 C1184.4487,266.0783 1183.1278,258.2119 1183.1278,258.2119 C1193.6949,259.1554 1194.2139,249.1544 1194.2139,249.1544 L1174.943,249.1544 L1174.943,242.0664 L1184.5195,242.0664 C1184.5195,242.0664 1184.0826,236.3347 1181.2408,232.1007 C1178.2334,227.7607 1171.7705,225.5317 1166.5577,229.1995 C1160.9911,233.1268 1162.8073,240.7809 1162.8073,240.7809 C1161.7341,240.7809 1157.795,238.4457 1155.566,231.4521 C1151.391,218.1488 1164.541,205.3173 1177.8796,212.7237 C1187.2674,217.9248 1191.1475,229.6477 1191.1475,242.0664 L1196.266,242.0664 C1196.1008,243.0099 1197.4453,232.7848 1195.4404,225.2015 C1193.9898,219.9297 1192.1382,214.3984 1188.9421,207.735 C1186.1352,201.9443 1185.1209,192.17917 1191.0178,184.89068 C1196.0537,178.53389 1199.0375,174.9722 1200.3937,172.51911 C1201.75,174.9722 1204.7574,178.53389 1209.8405,184.89068 C1215.7019,192.17917 1214.6641,201.9443 1211.8572,207.735 C1208.6847,214.3984 1206.8331,219.9297 1205.4061,225.2015 C1203.3775,232.7848 1204.722,243.0099 1204.5682,242.0664 L1209.6513,242.0664 C1209.6513,229.6477 1213.555,217.9248 1222.9074,212.7237 C1236.246,205.3173 1249.4078,218.1488 1245.2564,231.4521 L1245.2569,231.4521 Z" id="path3154" fill="#1A64B7"></path>
    <path d="M1345.9512,279.3108 L1529.9915,279.3108 L1529.9915,166.62228 L1345.9512,166.62228 L1345.9512,279.3108 L1345.9512,279.3108 Z M1482.7814,231.4521 C1480.5642,238.4457 1476.6487,240.7809 1475.5519,240.7809 C1475.5519,240.7809 1477.3327,233.1268 1471.8251,229.1995 C1466.5533,225.5317 1460.1022,227.7607 1457.0712,232.1007 C1454.2879,236.3347 1453.8279,242.0664 1453.8279,242.0664 L1463.4398,242.0664 L1463.4398,249.1544 L1444.1335,249.1544 C1444.1335,249.1544 1444.6175,259.1554 1455.2314,258.2119 C1455.2314,258.2119 1453.9341,266.0783 1444.1335,261.9387 C1444.1335,261.9387 1444.6175,270.2061 1437.9419,274.3575 C1431.2313,270.2061 1431.7384,261.9387 1431.7384,261.9387 C1421.9732,266.0783 1420.6759,258.2119 1420.6759,258.2119 C1431.2313,259.1554 1431.7384,249.1544 1431.7384,249.1544 L1412.5147,249.1544 L1412.5147,242.0664 L1422.0912,242.0664 C1422.0912,242.0664 1421.643,236.3347 1418.7653,232.1007 C1415.7698,227.7607 1409.295,225.5317 1404.1176,229.1995 C1398.5156,233.1268 1400.3672,240.7809 1400.3672,240.7809 C1399.2586,240.7809 1395.3195,238.4457 1393.1377,231.4521 C1388.9156,218.1488 1402.0773,205.3173 1415.4277,212.7237 C1424.8273,217.9248 1428.672,229.6477 1428.672,242.0664 L1433.8023,242.0664 C1433.673,243.0099 1434.9698,232.7848 1432.9645,225.2015 C1431.5138,219.9297 1429.674,214.3984 1426.4661,207.735 C1423.6592,201.9443 1422.645,192.17917 1428.5418,184.89068 C1433.5895,178.53389 1436.5851,174.9722 1437.9414,172.51911 C1439.2505,174.9722 1442.3522,178.53389 1447.3645,184.89068 C1453.1906,192.17917 1452.1881,201.9443 1449.393,207.735 C1446.2559,214.3984 1444.3571,219.9297 1442.9301,225.2015 C1440.9016,232.7848 1442.2583,243.0099 1442.1281,242.0664 L1447.2112,242.0664 C1447.2112,229.6477 1451.0795,217.9248 1460.4083,212.7237 C1473.7588,205.3173 1486.9205,218.1488 1482.7809,231.4521 L1482.7814,231.4521 Z" id="path3156" fill="#1A64B7"></path>
</svg>
