<svg xmlns="http://www.w3.org/2000/svg" viewBox="0 0 226.27 102.88">
    <path style="fill:#231f20;" d="M10.35,102.71H7.52c-.2,0-.28-.19-.37-.37L4.67,97.65l-.2,0c-.39,0-1,0-1.31,0v4.71a.37.37,0,0,1-.37.37H.37a.37.37,0,0,1-.37-.37V89.91c0-.63.26-.8.83-.89a29.18,29.18,0,0,1,3.76-.25c3.15,0,5.58,1.06,5.58,4.33v.24a3.74,3.74,0,0,1-2.39,3.71l2.8,5.22a.49.49,0,0,1,.06.2C10.63,102.62,10.56,102.71,10.35,102.71ZM7,93.12c0-1.13-.87-1.65-2.43-1.65-.26,0-1.22,0-1.44.06v3.55c.2,0,1.11,0,1.31,0,1.95,0,2.56-.5,2.56-1.76Z"/>
    <path style="fill:#231f20;" d="M15.41,102.71H12.93a.34.34,0,0,1-.33-.37v-13a.33.33,0,0,1,.33-.35h2.48a.34.34,0,0,1,.35.35v13A.36.36,0,0,1,15.41,102.71Z"/>
    <path style="fill:#231f20;" d="M26.29,102.56a10.51,10.51,0,0,1-2.76.31C20.71,102.88,18,101.4,18,97V94.66c0-4.41,2.67-5.87,5.48-5.87a10.46,10.46,0,0,1,2.76.32c.26.07.41.15.41.41v1.8a.33.33,0,0,1-.35.37h-.06c-.7-.06-1.72-.15-2.74-.15-1.28,0-2.3.67-2.3,3.13V97c0,2.46,1,3.13,2.3,3.13,1,0,2-.09,2.74-.15h.06a.33.33,0,0,1,.35.37v1.8C26.69,102.4,26.55,102.49,26.29,102.56Z"/>
    <path style="fill:#231f20;" d="M39.29,102.71H36.87a.37.37,0,0,1-.37-.37V97H31.92v5.35a.37.37,0,0,1-.37.37H29.12a.37.37,0,0,1-.37-.37v-13a.36.36,0,0,1,.37-.35h2.43a.36.36,0,0,1,.37.35v4.93H36.5V89.3a.36.36,0,0,1,.37-.35h2.43a.36.36,0,0,1,.37.35v13A.37.37,0,0,1,39.29,102.71Z"/>
    <path style="fill:#231f20;" d="M54.46,102.71H52a.34.34,0,0,1-.3-.37V94.62c0-.13-.06-.15-.09-.15s-.09,0-.15.13l-1.67,3.05a.59.59,0,0,1-.56.31H47.78a.59.59,0,0,1-.56-.31L45.56,94.6c-.06-.09-.09-.13-.15-.13s-.09,0-.09.15v7.72a.34.34,0,0,1-.3.37H42.57c-.15,0-.31-.06-.31-.26V89.58a.61.61,0,0,1,.67-.63h1.74a.87.87,0,0,1,.82.5l2.83,5.28c.07.15.13.24.2.24s.13-.09.21-.24l2.83-5.28a.86.86,0,0,1,.82-.5h1.74a.63.63,0,0,1,.67.65v12.85C54.78,102.65,54.61,102.71,54.46,102.71Z"/>
    <path style="fill:#231f20;" d="M62.54,102.88c-3.05,0-5.48-1.65-5.48-5.94v-2.2c0-4.3,2.43-5.95,5.48-5.95S68,90.43,68,94.73v2.2C68,101.23,65.6,102.88,62.54,102.88Zm2.3-8.15c0-2.22-.74-3.17-2.3-3.17s-2.28.94-2.28,3.17v2.2c0,2.22.72,3.17,2.28,3.17s2.3-.94,2.3-3.17Z"/>
    <path style="fill:#231f20;" d="M80.5,102.71H78.68a1,1,0,0,1-1-.58l-4.22-7.3c-.07-.11-.11-.15-.17-.15s-.09,0-.09.15v7.5a.37.37,0,0,1-.37.37H70.68a.37.37,0,0,1-.37-.37V89.66A.7.7,0,0,1,71,89h1.87c.37,0,.56.18.78.57l4.39,7.63c.07.11.09.15.15.15s.09,0,.09-.17V89.3a.36.36,0,0,1,.37-.35h2.19a.36.36,0,0,1,.37.35V102A.72.72,0,0,1,80.5,102.71Z"/>
    <path style="fill:#231f20;" d="M88.3,102.88a27.73,27.73,0,0,1-3.94-.28.56.56,0,0,1-.54-.65V89.71a.56.56,0,0,1,.54-.65,27.63,27.63,0,0,1,3.94-.28c3.69,0,5.91,1.95,5.91,5.85V97C94.21,100.93,92,102.88,88.3,102.88ZM91,94.64c0-2.5-1.07-3.17-2.74-3.17-.46,0-1.06,0-1.31,0v8.65c.26,0,.85,0,1.31,0C90,100.19,91,99.53,91,97Z"/>
    <path style="fill:#231f20;" d="M106.43,102.88c-3.06,0-5.48-1.65-5.48-5.94v-2.2c0-4.3,2.43-5.95,5.48-5.95s5.48,1.65,5.48,5.95v2.2C111.91,101.23,109.49,102.88,106.43,102.88Zm2.3-8.15c0-2.22-.74-3.17-2.3-3.17s-2.28.94-2.28,3.17v2.2c0,2.22.72,3.17,2.28,3.17s2.3-.94,2.3-3.17Z"/>
    <path style="fill:#231f20;" d="M121.73,102.64a19.08,19.08,0,0,1-3,.24c-2.39,0-4.52-.61-4.52-4V89.32a.37.37,0,0,1,.37-.37H117a.37.37,0,0,1,.37.37V98.9c0,1,.31,1.26,1.18,1.26h3.18a.37.37,0,0,1,.37.37v1.72C122.11,102.49,122,102.58,121.73,102.64Z"/>
    <path style="fill:#231f20;" d="M132.32,89.36l-2.8,6.41a2.39,2.39,0,0,1-1.2,1.43v5.15a.37.37,0,0,1-.37.37h-2.43a.37.37,0,0,1-.37-.37V97.19a2.4,2.4,0,0,1-1.22-1.43l-2.8-6.41a.33.33,0,0,1,0-.13.28.28,0,0,1,.29-.28h2.67a.41.41,0,0,1,.37.31l2,5.22c.09.24.15.28.28.28s.18,0,.28-.28l2-5.22a.41.41,0,0,1,.37-.31H132a.28.28,0,0,1,.3.28A.31.31,0,0,1,132.32,89.36Z"/>
    <path style="fill:#231f20;" d="M146.23,102.71h-2.44a.34.34,0,0,1-.3-.37V94.62c0-.13-.05-.15-.09-.15s-.09,0-.15.13l-1.67,3.05A.59.59,0,0,1,141,98h-1.48a.6.6,0,0,1-.56-.31l-1.66-3.05c-.05-.09-.09-.13-.15-.13s-.09,0-.09.15v7.72a.34.34,0,0,1-.3.37h-2.45c-.15,0-.31-.06-.31-.26V89.58a.61.61,0,0,1,.67-.63h1.74a.87.87,0,0,1,.82.5l2.83,5.28c.07.15.13.24.2.24s.13-.09.2-.24l2.83-5.28a.86.86,0,0,1,.82-.5h1.74a.63.63,0,0,1,.67.65v12.85C146.54,102.65,146.38,102.71,146.23,102.71Z"/>
    <path style="fill:#231f20;" d="M153.77,97.89c-.44,0-1,0-1.5-.05v4.5a.37.37,0,0,1-.37.37h-2.39a.36.36,0,0,1-.37-.35V89.91c0-.63.26-.8.83-.89a27.19,27.19,0,0,1,3.76-.25c2.8,0,5.56,1,5.56,4.46v.17C159.29,96.88,156.53,97.89,153.77,97.89Zm2.37-4.65c0-1.31-.82-1.83-2.37-1.83-.26,0-1.28,0-1.5.05v3.78c.2,0,1.3,0,1.5,0,1.65,0,2.37-.61,2.37-1.87Z"/>
    <path style="fill:#231f20;" d="M164,102.71h-2.48a.34.34,0,0,1-.33-.37v-13a.32.32,0,0,1,.33-.35H164a.34.34,0,0,1,.35.35v13A.36.36,0,0,1,164,102.71Z"/>
    <path style="fill:#231f20;" d="M174.89,102.56a10.54,10.54,0,0,1-2.76.31c-2.82,0-5.48-1.48-5.48-5.89V94.66c0-4.41,2.67-5.87,5.48-5.87a10.49,10.49,0,0,1,2.76.32c.26.07.41.15.41.41v1.8a.33.33,0,0,1-.35.37h-.06c-.71-.06-1.72-.15-2.74-.15-1.28,0-2.29.67-2.29,3.13V97c0,2.46,1,3.13,2.29,3.13,1,0,2-.09,2.74-.15h.06a.33.33,0,0,1,.35.37v1.8C175.3,102.4,175.15,102.49,174.89,102.56Z"/>
    <path style="fill:#231f20;" d="M187.34,102.88c-3.05,0-5.48-1.65-5.48-5.94v-2.2c0-4.3,2.43-5.95,5.48-5.95s5.48,1.65,5.48,5.95v2.2C192.82,101.23,190.39,102.88,187.34,102.88Zm2.3-8.15c0-2.22-.74-3.17-2.3-3.17s-2.28.94-2.28,3.17v2.2c0,2.22.72,3.17,2.28,3.17s2.3-.94,2.3-3.17Z"/>
    <path style="fill:#231f20;" d="M205.53,89.34l-2.76,11.48c-.42,1.77-1.78,2.05-3.06,2.05s-2.65-.28-3.07-2.05l-2.76-11.48s0-.06,0-.09a.31.31,0,0,1,.33-.3h2.57a.39.39,0,0,1,.37.33L199.46,100c0,.21.09.28.26.28s.23-.07.26-.28l2.31-10.68a.38.38,0,0,1,.35-.33h2.59a.29.29,0,0,1,.31.3A.74.74,0,0,0,205.53,89.34Z"/>
    <path style="fill:#231f20;" d="M216.76,102.71h-2.59a.4.4,0,0,1-.37-.33l-.67-3h-3.79l-.67,3a.39.39,0,0,1-.37.33H205.7a.29.29,0,0,1-.31-.3.76.76,0,0,0,0-.09l2.76-11.48c.42-1.78,1.8-2.06,3.07-2.06s2.63.28,3.06,2.06l2.76,11.48a.8.8,0,0,0,0,.09A.29.29,0,0,1,216.76,102.71Zm-5.28-11c0-.18-.07-.28-.24-.28s-.22.09-.26.28l-1.13,5.11h2.76Z"/>
    <path style="fill:#231f20;" d="M225.89,102.64a19.1,19.1,0,0,1-3,.24c-2.39,0-4.52-.61-4.52-4V89.32a.37.37,0,0,1,.37-.37h2.43a.37.37,0,0,1,.37.37V98.9c0,1,.31,1.26,1.18,1.26h3.19a.37.37,0,0,1,.37.37v1.72C226.27,102.49,226.16,102.58,225.89,102.64Z"/>
    <path style="fill:#231f20;" d="M176.44,55.77l-4.8,16.17h20.12C187,57.93,171.54,25.83,154.15,0c-8.47,1.23-17.1,2.77-25.91,4.81a204.67,204.67,0,0,1,28.08,45.33A74.43,74.43,0,0,0,176.44,55.77Z"/>
    <path style="fill:#231f20;fill-rule:evenodd;" d="M94.3,55.73c-1.54.06-3.06.14-4.56.24L85.88,72H98.21l3.92-16.28C99.59,55.62,97,55.63,94.3,55.73ZM75.76,57.32,72.22,72H83.07l3.82-15.78C82.91,56.47,79.16,56.88,75.76,57.32Zm29.17-1.57L101,72h11.86l3.7-15.32C113.11,56.25,109.16,55.92,104.93,55.75ZM58.85,60.16,62,72h7.45l3.44-14.24C64.46,58.9,58.85,60.16,58.85,60.16ZM119.31,57l-3.62,15h11.2l3.23-13.23S125.89,57.79,119.31,57Z"/>
    <path style="fill:#231f20;" d="M149.36,47l1.52.67A228.89,228.89,0,0,0,124,5.84a238.82,238.82,0,0,0-25.69,7.93,204.49,204.49,0,0,1,20,26.34C132.93,41.18,142.13,44,149.36,47Z"/>
    <path style="fill:#231f20;" d="M108.08,39.67c1.75,0,3.41.09,5,.15A228.45,228.45,0,0,0,94.41,15.25,235,235,0,0,0,70.83,26.07a205.4,205.4,0,0,1,13.4,15.76A122.17,122.17,0,0,1,108.08,39.67Z"/>
    <path style="fill:#231f20;" d="M58.74,49.23a125.57,125.57,0,0,1,21.05-6.5q-5.87-7.66-12.38-14.82c-7.05,3.86-14.23,8.22-21.54,13.21,3,3.17,5.9,6.46,8.71,9.8C55.88,50.4,57.26,49.85,58.74,49.23Z"/>
    <path style="fill:#231f20;" d="M39.44,56.1a90.66,90.66,0,0,0,11.26-3.68c-2.57-3.1-5.2-6.17-7.92-9.15q-9.68,6.79-19.69,15,6.15,6.56,11.69,13.63H46.92Z"/>
</svg>
