<svg xmlns="http://www.w3.org/2000/svg" viewBox="0 0 192.04 124.95">
    <path style="fill:#aa710a;" d="M173.73,67h-1.36v-.48h3.27V67h-1.36v3.57h-.56Z"/>
    <path style="fill:#aa710a;" d="M179.93,66.89h0l-1.3,3.64h-.53l-1.29-3.64h0v3.64h-.56v-4h1l1.17,3.34h0l1.14-3.34h.94v4h-.56Z"/>
    <path style="fill:#aa710a;" d="M182.7,66.49l-1.26,4h-.37l1.26-4Z"/>
    <path style="fill:#aa710a;" d="M187,66.89h0l-1.3,3.64h-.52l-1.29-3.64h0v3.64h-.56v-4h1l1.17,3.34h0l1.15-3.34h.93v4H187Z"/>
    <path style="fill:#aa710a;" d="M190.75,67.53a.81.81,0,0,0-.86-.64c-1,0-1.18.91-1.18,1.63s.25,1.62,1.13,1.62a.82.82,0,0,0,.89-.64h.59a1.41,1.41,0,0,1-1.53,1.13c-1.19,0-1.67-1-1.67-2.11s.43-2.15,1.79-2.11c.78,0,1.36.4,1.42,1.12Z"/>
    <path style="fill:#aa710a;" d="M186.16,53.78A4.62,4.62,0,0,1,182,52.17c-1.52-2,2.35-11.82,2.85-13.3,0,0-5.8,2.08-9.3,2.13-1.44,0-2.62-.17-3-.73-1-1.25-.2-4.63-.18-5.56l-8.75,9.37-.88.85c-.65.63-1.88.5-1.41-1.6.78-3.56,4.21-21.36,4.21-21.36s-4.78,4.06-6.3,3.84c-1-.14-1.62-1-2.26-2-1.18-2-7-13.93-7-13.93s-5.83,12.1-7.17,14.2c-.6.94-1.28,2.26-3.2,1.47A31.74,31.74,0,0,1,134.47,22s2,10.2,2.5,11.37c.66,1.53,10.36-4,10.33-4s-6.68,20.58-5.67,22.52c1.18,2.27,13,1.29,13,1.26s-13.94,10.79-27.53,21c3-.61,17.73-3.08,19.81-1.93,1.41.78,1.18,5.46,1.18,5.46h4.05s-.17-4.6,1.18-5.42c2.3-1.4,18.14,2,18.14,2l-5.8-7.75Z"/>
    <path style="fill:#b4b9c0;" d="M26.68,66.49l-5.8,7.75s15.84-3.43,18.14-2c1.35.82,1.18,5.42,1.18,5.42h4.05S44,73,45.44,72.18c2.08-1.15,16.85,1.33,19.81,1.93-13.6-10.21-27.53-21-27.53-21s11.83,1,13-1.26c1-1.95-5.67-22.52-5.67-22.52s9.67,5.53,10.33,4c.51-1.17,2.5-11.37,2.5-11.37a31.68,31.68,0,0,1-5.16,3.57c-1.92.79-2.6-.53-3.2-1.47C48.18,22,42.35,9.86,42.35,9.86s-5.8,12-7,13.93c-.64,1.05-1.25,1.88-2.26,2C31.59,26,26.81,22,26.81,22S30.25,39.76,31,43.32c.47,2.1-.76,2.24-1.4,1.6l-.88-.85L20,34.71c0,.93.78,4.31-.17,5.56-.42.56-1.6.75-3,.73-3.5-.05-9.3-2.13-9.3-2.13.5,1.48,4.37,11.26,2.85,13.3A4.62,4.62,0,0,1,6.2,53.78Z"/>
    <path style="fill:#e5b53b;" d="M142.47,57.46s-4.06.51-5.92-2.11,3-15.47,3.59-17.4c0,0-7.31,2.72-11.73,2.79-1.81,0-3.31-.22-3.83-1-1.2-1.64-.25-6.06-.22-7.27l-11,12.26-1.11,1.11c-.82.83-2.37.65-1.77-2.1,1-4.66,5.31-27.94,5.31-27.94s-6,5.31-7.94,5c-1.28-.19-2-1.27-2.86-2.65C103.47,15.67,96.16,0,96.16,0h0s-7.31,15.67-8.8,18.22c-.81,1.38-1.57,2.46-2.85,2.65-1.91.28-7.94-5-7.94-5s4.34,23.28,5.31,27.94c.6,2.75-1,2.93-1.77,2.1L79,44.77,68,32.51c0,1.22,1,5.63-.22,7.27-.52.74-2,1-3.83,1C59.5,40.67,52.18,38,52.18,38c.63,1.93,5.51,14.73,3.59,17.4s-5.92,2.11-5.92,2.11l23,16.63L65.5,84.24S89.05,79.75,92,81.59c1.7,1.07,1.49,6.6,1.49,6.6h5.41s-.21-5.52,1.49-6.6c2.91-1.84,26.47,2.65,26.47,2.65l-7.31-10.14Z"/>
    <path style="fill:#e5b53b;" d="M13.47,100.31a6.55,6.55,0,0,1-6.74,6.62A6.43,6.43,0,0,1,0,100.31a6.58,6.58,0,0,1,6.73-6.64A6.4,6.4,0,0,1,13.47,100.31Zm-10.62,0c0,2.54,1.5,4.65,3.88,4.65s3.88-2.13,3.88-4.65-1.49-4.67-3.88-4.67S2.85,97.67,2.85,100.31Z"/>
    <path style="fill:#e5b53b;" d="M19.64,106.79H18L13.78,93.92h2.68l2.75,8.72,1.83-5-1.19-3.67h2.7l2.62,8.45,2.89-8.45h2.36l-4.71,12.86H24.05L22,100.38Z"/>
    <path style="fill:#e5b53b;" d="M43.14,93.92v12.76H40.56l-6.62-8.5v8.5H31.63V93.92H34l6.79,8.68V93.92Z"/>
    <path style="fill:#e5b53b;" d="M49.44,93.92H60.3v2H56.23v10.77H53.51V95.91H49.44Z"/>
    <path style="fill:#e5b53b;" d="M69.85,101.11H64.51v5.57H61.83V93.92h2.68v5.22h5.34V93.92h2.68v12.76H69.85Z"/>
    <path style="fill:#e5b53b;" d="M83.32,106.68H75.09V93.92h8v2H77.8v3.21h3.87v2H77.8v3.57h5.51Z"/>
    <path style="fill:#e5b53b;" d="M12.56,124.7V111.94h4.05c3.06,0,4.73,1.64,4.73,3.67,0,2.29-2.18,3.78-4.78,3.78H15.24v5.31Zm3.64-7.12a2.07,2.07,0,0,0,2.33-2c0-1.32-1.18-1.9-2.33-1.9h-1v3.87Z"/>
    <path style="fill:#e5b53b;" d="M36.27,118.33a6.55,6.55,0,0,1-6.74,6.62,6.43,6.43,0,0,1-6.74-6.62,6.59,6.59,0,0,1,6.74-6.64A6.39,6.39,0,0,1,36.27,118.33Zm-10.62,0c0,2.54,1.49,4.65,3.88,4.65s3.89-2.13,3.89-4.65-1.49-4.67-3.89-4.67S25.65,115.69,25.65,118.33Z"/>
    <path style="fill:#e5b53b;" d="M38.37,111.94H42.5c3.77,0,7.25,2.14,7.25,6.34,0,3.83-3.62,6.42-7.25,6.42H38.37Zm4.17,10.78a4.57,4.57,0,0,0,4.36-4.44,4.16,4.16,0,0,0-4.38-4.36H41.06v8.79Z"/>
    <path style="fill:#e5b53b;" d="M51.85,124.7V111.94h2.68V124.7Z"/>
    <path style="fill:#e5b53b;" d="M67.8,120.3c0,2.62-1.94,4.65-5.4,4.65S57,123,57,120.3v-8.36h2.72v8c0,1.89.82,3,2.81,3a2.74,2.74,0,0,0,2.79-3v-8H67.8Z"/>
    <path style="fill:#e5b53b;" d="M83.31,124.7H80.7L80.56,117l-3.27,7.79H75.58L72.48,117l-.31,7.74H70l.54-12.76h2.52l3.68,9.35,3.9-9.35H83Z"/>
    <path style="fill:#e5b53b;" d="M101.75,106.67H99.32l5.2-12.8h1.86l4.71,12.8h-2.79l-1-2.87h-4.42ZM103,89.5,106.17,92l-.61.94L102,91Zm2.12,8.31L103.51,102h3.12Z"/>
    <path style="fill:#e5b53b;" d="M128.92,93.9v12.76h-2.58l-6.62-8.5v8.5H117.4V93.9h2.41l6.79,8.69V93.9Z"/>
    <path style="fill:#e5b53b;" d="M144.42,100.29a6.55,6.55,0,0,1-6.74,6.62,6.43,6.43,0,0,1-6.74-6.62,6.58,6.58,0,0,1,6.74-6.64A6.39,6.39,0,0,1,144.42,100.29Zm-10.62,0c0,2.54,1.49,4.65,3.88,4.65s3.88-2.12,3.88-4.65-1.49-4.67-3.88-4.67S133.8,97.65,133.8,100.29Z"/>
    <path style="fill:#e5b53b;" d="M157.24,102.27c0,2.62-1.93,4.65-5.4,4.65s-5.4-1.93-5.4-4.65V93.9h2.72v8c0,1.89.82,3,2.81,3a2.74,2.74,0,0,0,2.79-3v-8h2.47Z"/>
    <path style="fill:#e5b53b;" d="M163.15,104.92c1,0,2-.5,2-1.38,0-1-1.17-1.61-2.54-2.47-1.23-.77-3-1.7-3-4a3.74,3.74,0,0,1,4-3.44,7.83,7.83,0,0,1,3.67.77l-.77,1.82a5.21,5.21,0,0,0-2.28-.59c-.9,0-1.89.29-1.89,1.13,0,1.07,1.22,1.59,2.47,2.41s3.16,2,3.16,3.83c0,2.49-2.33,3.9-4.86,3.9a7.54,7.54,0,0,1-3.87-.9l.77-1.8A6.6,6.6,0,0,0,163.15,104.92Z"/>
    <path style="fill:#e5b53b;" d="M177.67,104.68h4.73v2H175V93.9h2.72Z"/>
    <path style="fill:#e5b53b;" d="M192,106.67h-8.23V93.9h8v2h-5.28v3.21h3.87v2h-3.87v3.58H192Z"/>
    <path style="fill:#e5b53b;" d="M100.12,124.71V111.94h4.06c3.06,0,4.73,1.65,4.73,3.67,0,2.29-2.18,3.79-4.78,3.79H102.8v5.3Zm3.64-7.12a2.07,2.07,0,0,0,2.33-2c0-1.32-1.19-1.9-2.33-1.9h-1v3.87Z"/>
    <path style="fill:#e5b53b;" d="M123.83,118.33a6.55,6.55,0,0,1-6.74,6.62,6.43,6.43,0,0,1-6.74-6.62,6.58,6.58,0,0,1,6.74-6.64A6.4,6.4,0,0,1,123.83,118.33Zm-10.62,0c0,2.54,1.49,4.65,3.88,4.65s3.88-2.12,3.88-4.65-1.49-4.67-3.88-4.67S113.21,115.69,113.21,118.33Z"/>
    <path style="fill:#e5b53b;" d="M125.93,111.94h4.13c3.77,0,7.25,2.14,7.25,6.35,0,3.83-3.62,6.41-7.25,6.41h-4.13Zm4.17,10.79a4.58,4.58,0,0,0,4.36-4.44,4.16,4.16,0,0,0-4.38-4.36h-1.45v8.8Z"/>
    <path style="fill:#e5b53b;" d="M139.42,124.71V111.94h2.68v12.76Z"/>
    <path style="fill:#e5b53b;" d="M155.36,120.31c0,2.62-1.93,4.65-5.4,4.65s-5.4-1.93-5.4-4.65v-8.36h2.72v8c0,1.89.82,3,2.81,3a2.74,2.74,0,0,0,2.79-3v-8h2.47Z"/>
    <path style="fill:#e5b53b;" d="M170.88,124.71h-2.6l-.13-7.73-3.27,7.79h-1.72L160,117l-.31,7.73h-2.16l.54-12.76h2.53l3.67,9.36,3.9-9.36h2.35Z"/>
    <rect style="fill:#e5b53b;" x="90.89" y="93.71" width="1.9" height="30.99"/>
</svg>
