<svg xmlns="http://www.w3.org/2000/svg" viewBox="0 0 131.98 31.63">
    <path style="fill:#231f20;" d="M63.61,17.45c0,1.24,0,10.19,0,10.19s-.47,2.42-2.18,2.92c-.58.17-.6.54,0,.54h8.39c.6,0,.58-.37,0-.54-1.71-.5-2.18-2.92-2.18-2.92V16.94c0-2.66-2-5.18-6.75-5.18s-5.94,2-6.11,2.28-.3,0-.3,0-.44-1.71-.54-2-.27-.27-.27-.27l-5.77.84s-1.17.2,0,.57c0,0,2.58,1.27,2.55,3.22,0,1.24,0,11.24,0,11.24s-.47,2.42-2.18,2.92c-.58.17-.6.54,0,.54h8.39c.6,0,.58-.37,0-.54-1.71-.5-2.18-2.92-2.18-2.92V17.46S55,13,59.48,13C59.48,13,63.48,12.94,63.61,17.45Z"/>
    <rect style="fill:#ea2d30;" x="110.67" y="0.52" width="4.83" height="9.67"/>
    <rect style="fill:#ea2d30;" x="125.17" y="0.52" width="4.83" height="9.67"/>
    <line style="fill:#ea2d30;" x1="120.37" y1="1.82" x2="120.37" y2="1.84"/>
    <path style="fill:#ea2d30;" d="M120.43,1.62c.43,2.12,1.31,1,1.31,1l-.3,1.81c-.1.57.4.13.4.13l.74-.74c-.17,1.21,1.28.47,1.28.47-.81,1.41.2,1.31.2,1.31L122.41,7l-.27.34.44.7-2-.5.1,1.91h-.54l.1-1.91-1.91.44.3-.64L118.32,7l-1.65-1.34s1-.1.13-1.38c0,0,1.44.74,1.34-.4l.74.74s.5.44.4-.13L119,2.63s1,1,1.38-1"/>
    <path style="fill:#231f20;" d="M25.58.21l.74,11s-.2,1.48-.87-.14S22.36.41,15.64,1.29,5.91,7.66,5.91,16.53,9.73,30,16.31,30s8.79-4,10-7.72c0,0,.47-1.54.4-.07,0,0-.07,9.54-12,9.4C3.08,31.5,0,20.55,0,16.46S1.61,1.15,15.84,0a17.66,17.66,0,0,1,7,1.68s.94.54,1.41-.2.6-1,.6-1S25.17-.39,25.58.21Z"/>
    <path style="fill:#231f20;" d="M104.11,29.77C99.76,32.45,94,31.83,91,27.48c-3.16-4.6-2.6-10.86,2.13-14.1,3.42-2.34,8.24-2.62,10.92-.08,0,0,.4.44.4-.17V4a3.38,3.38,0,0,0-3.16-2.69s-.67-.23-.07-.54l6.31-.67s.94-.07.94.57V26.83s.57,3.22,2.89,3.22c0,0,.87.07,0,.54l-6.21.81s-.47.2-.47-.4l-.13-1S104.74,29.37,104.11,29.77Zm.4-8.13c0-3.89.37-9.56-5.9-9-4.18.41-5.82,6.56-4.93,10.82C94.42,27,96,31,100.35,30.31,105.17,29.56,104.5,24.32,104.51,21.63Z"/>
    <path style="fill:#231f20;" d="M46.52,29.52s1.41-1.21.5.17l-.57.67c-2.09,1.45-5.75,1-7.22-.64a.42.42,0,0,0-.71-.11,7.85,7.85,0,0,1-7.38,1.29,4.76,4.76,0,0,1-3.73-4.85c.49-5,6.09-4.35,9.63-5.67,1-.35,1.62-1.71,1.66-3.1,0-1.83-.51-4.75-3.36-4.78-2.48,0-2.51,2.52-3.85,3.94a2.1,2.1,0,0,1-3.07-.67,2.46,2.46,0,0,1,.9-2.85c3-2.32,13.52-1.8,13.52,2.49,0,6,0,7.95,0,13.05,0,1.27,1,1.67,2,1.68a4.15,4.15,0,0,0,1.88-.78M38.4,20.69c-2.89,1.41-6.88,2.75-6.83,6.44,0,2.46,3,3.93,5.31,2.43a4.74,4.74,0,0,0,1.93-3.87V21.06S38.87,20.52,38.4,20.69Z"/>
    <path style="fill:#231f20;" d="M89.22,29.52s1.41-1.21.5.17l-.57.67c-2.09,1.45-5.75,1-7.22-.64a.42.42,0,0,0-.71-.11,7.85,7.85,0,0,1-7.38,1.29,4.75,4.75,0,0,1-3.73-4.85c.49-5,6.09-4.35,9.63-5.67,1-.35,1.62-1.71,1.66-3.1,0-1.83-.51-4.75-3.36-4.78-2.48,0-2.51,2.52-3.85,3.94a2.1,2.1,0,0,1-3.07-.67,2.46,2.46,0,0,1,.9-2.85c3-2.32,13.52-1.8,13.52,2.49,0,6,0,7.95,0,13.05,0,1.27,1,1.67,2,1.68a4.14,4.14,0,0,0,1.88-.78m-8.36-8.69c-2.89,1.41-6.88,2.75-6.83,6.44,0,2.46,3,3.93,5.31,2.43a4.75,4.75,0,0,0,1.93-3.87V21.06S81.56,20.52,81.09,20.69Z"/>
    <path style="fill:#231f20;" d="M131.17,29.52s1.41-1.21.5.17l-.57.67c-2.09,1.45-5.75,1-7.22-.64a.42.42,0,0,0-.71-.11,7.85,7.85,0,0,1-7.38,1.29,4.75,4.75,0,0,1-3.73-4.85c.49-5,6.09-4.35,9.63-5.67,1-.35,1.62-1.71,1.66-3.1,0-1.83-.51-4.75-3.36-4.78-2.48,0-2.51,2.52-3.85,3.94a2.1,2.1,0,0,1-3.07-.67,2.46,2.46,0,0,1,.9-2.85c3-2.32,13.52-1.8,13.52,2.49,0,6,0,7.95,0,13.05,0,1.27,1,1.67,2,1.68a4.14,4.14,0,0,0,1.88-.78m-8.36-8.69c-2.89,1.41-6.88,2.75-6.83,6.44,0,2.46,3,3.93,5.31,2.43a4.74,4.74,0,0,0,1.93-3.87V21.06S123.52,20.52,123.05,20.69Z"/>
</svg>
