<svg xmlns="http://www.w3.org/2000/svg" viewBox="0 0 562.07 198.42">
  <path fill="#231f20" d="M5.3,137.43v23.42s91,37.56,263.82,37.56,253.21-30,253.21-30v-22.1s-91.91,29.16-253.21,29.16S5.3,137.43,5.3,137.43Z"/>
  <path fill="#231f20" d="M36.68,46.4v85.4l27.84,6.74V40.46c45.18-8.4,113.73-17,204.6-17,176.76,0,262.49,40.21,262.49,40.21v-23S415,0,269.12,0,0,34,0,34v22.1Z"/>
  <polygon fill="#231f20" points="252.77 41.43 272.1 41.65 272.21 159.97 252.77 159.97 252.77 41.43"/>
  <polygon fill="#231f20" points="283.81 41.54 283.71 160.08 303.92 159.64 304.03 126.38 307.56 120.2 317.29 159.08 336.73 158.64 320.38 92.36 343.8 43.75 323.92 42.42 304.03 80.43 303.92 42.2 283.81 41.54"/>
  <path fill="#231f20" d="M112.69,50.82,89.27,53.91,68.94,139.2l20.77,4.42,3.09-16.35,12.37,2.21,1.33,16.79,22.54,4ZM95.89,108.71l5.3-25.63,2.65,26.52Z"/>
  <path fill="#231f20" d="M386.67,47.73l-27.4-2.43-19,112.91,19.88-1.33,4.42-18.56L380.48,137l2.65,18.12,20.21-2Zm-19.89,71.15,5.3-37.12L377.83,118Z"/>
  <path fill="#231f20" d="M494.94,68.94l-22.1-6L459,144.83l17.34-3,2.21-16.79,8.84-1.32L490.3,139,506,135.33ZM480.35,111.8,483,91.92l3.09,19.44Z"/>
  <path fill="#231f20" d="M446.77,111.36s2.65.44,6.19-9.28c3.82-10.51,1.33-30.93,1.33-30.93s1.33-7.51-10.61-14.58l-36.23-6.19V152.9l17.67-2.65.11-32.48,5.19-2,10.94,32.15,16.35-2.65ZM436.61,92.14c-1.33,2.93-1.77,4.42-5.52,4.42s-5-2.32-5-2.32l.22-18.67s4.75-.88,7.18.22,3.09,5.08,3.09,5.08S438.15,88.71,436.61,92.14Z"/>
  <path fill="#231f20" d="M181.4,86.39H162.84V63.85S163.06,61,157.1,61s-6.19,3.1-6.19,3.1v70s.22,4,6.19,4,5.75-4,5.75-4V112.46H181.4v25.63A19.43,19.43,0,0,1,168.59,154l-18.78-.33s-17.9-1.66-17.9-15.8V64.08s.88-15.69,19-17l12.15-.88s18.34-1.11,18.34,15.69Z"/>
  <polygon fill="#231f20" points="188.14 43.75 188.25 157.32 208.14 158.2 208.25 114.34 220.95 114.45 220.95 159.08 241.17 159.97 241.28 41.54 221.4 42.42 221.4 91.47 208.14 91.47 208.14 42.42 188.14 43.75"/>
  <path fill="#231f20" d="M559.15,57.29a9.95,9.95,0,0,1-14.12,0,10.05,10.05,0,0,1,0-14.15,10,10,0,0,1,17,7.05A9.69,9.69,0,0,1,559.15,57.29ZM546,44.11a8.34,8.34,0,0,0-2.51,6.1A8.43,8.43,0,0,0,546,56.35a8.58,8.58,0,0,0,12.18,0,8.72,8.72,0,0,0,0-12.24,8.57,8.57,0,0,0-12.17,0Zm5.92.56a8.36,8.36,0,0,1,3,.4,2.73,2.73,0,0,1,1.7,2.78A2.4,2.4,0,0,1,555.53,50a4.13,4.13,0,0,1-1.58.53,2.64,2.64,0,0,1,1.87,1.08,3,3,0,0,1,.59,1.71v.81q0,.38,0,.82a1.79,1.79,0,0,0,.09.57l.07.14h-1.81l0-.11,0-.12,0-.36v-.87a2.71,2.71,0,0,0-1-2.53,4.59,4.59,0,0,0-2.14-.35H550v4.34h-1.94v-11ZM554,46.42a5,5,0,0,0-2.34-.41H550v4h1.75a5.25,5.25,0,0,0,1.84-.24,2,2,0,0,0,.4-3.32Z"/>
</svg>
