<svg xmlns="http://www.w3.org/2000/svg" viewBox="0 0 438.51 240.59">
    <path style="fill:#21409a;" d="M428.63,229h2.06a1.62,1.62,0,0,1,1.54,1.45,1.52,1.52,0,0,1-1.54,1.46h-2.06Zm-1.75,8.28h1.75v-3.94l2,0h0a1.81,1.81,0,0,1,1.48,1.57c0,.64-.05,2.31.26,2.31h1.8c-.31-.11-.47-1.64-.57-2.77a2.2,2.2,0,0,0-1.44-2,2.54,2.54,0,0,0,1.86-2.2,2.87,2.87,0,0,0-2.92-2.8h-4.23Z"/>
    <path style="fill:#21409a;" d="M437.7,232.4a7.32,7.32,0,1,1-7.32-7.32A7.32,7.32,0,0,1,437.7,232.4Zm-15.46,0a8.14,8.14,0,1,0,8.14-8.14A8.14,8.14,0,0,0,422.24,232.4Z"/>
    <path style="fill:#21409a;" d="M101.32,240.59,149,182.85v43.58a14.12,14.12,0,0,1-14.11,14.17Z"/>
    <path style="fill:#21409a;" d="M235.37,201.53a11.37,11.37,0,0,0,2.64-7.35V184h-51.9v11.29h28.66L189.67,223.1a11,11,0,0,0-2.78,7.17v10.32h51.86V229.31H210.29Z"/>
    <path style="fill:#21409a;" d="M390.14,195.33a5.63,5.63,0,0,1,5.64,5.66v22.65a5.67,5.67,0,0,1-5.65,5.68H381.6a5.69,5.69,0,0,1-5.68-5.68V201a5.67,5.67,0,0,1,5.68-5.66ZM365.72,184a11.4,11.4,0,0,0-11.41,11.32v33.91a11.4,11.4,0,0,0,11.41,11.32h40.39a11.27,11.27,0,0,0,11.26-11.32V195.36A11.26,11.26,0,0,0,406.11,184Z"/>
    <path style="fill:#21409a;" d="M157.81,184h21.62v45.24a11.26,11.26,0,0,1-11.26,11.31H157.81Z"/>
    <path style="fill:#21409a;" d="M256.88,240.59a11.38,11.38,0,0,1-11.38-11.32V184h21.62v39.58a5.74,5.74,0,0,0,5.71,5.7h6.94a5.61,5.61,0,0,0,5.59-5.68V184H335.6a11.28,11.28,0,0,1,11.28,11.32v45.24H325.26V201a5.64,5.64,0,0,0-5.67-5.64H307v33.94a11.26,11.26,0,0,1-11.25,11.32Z"/>
    <path style="fill:#21409a;" d="M105.87,174.06,50.71,240.59H82l41.84-50.43A17.06,17.06,0,0,1,137,184h12V164.58H126A26.06,26.06,0,0,0,105.87,174.06Z"/>
    <path style="fill:#21409a;" d="M55.15,174.06,0,240.59H31.28l41.84-50.43A17.1,17.1,0,0,1,86.23,184H97.62V164.58H75.28A26,26,0,0,0,55.15,174.06Z"/>
    <path style="fill:#21409a;fill-rule:evenodd;" d="M171.82,95.58c18.74.67,33.12-.8,59.26-6.51-12.32,9.19-23.21,25.94-24.44,38.74C200.15,118.07,185.1,103,171.82,95.58Zm72.35,69c-5.19-16.67-12.86-54,20.12-77.15,23.56-16.53,95.06-36.06,133.37-50.1L425.2,0c-26.27,13.48-60.36,27.29-91.44,36.82C264.47,58,223,70.65,169.64,71.69c-38.42.75-39-17.38-1.56-49.9A1198.37,1198.37,0,0,1,0,72.48c60.11,1.69,105.75,13.91,133.18,29.84,39.06,22.68,48.53,46.51,52.94,62.26Z"/>
</svg>
