<svg xmlns="http://www.w3.org/2000/svg" viewBox="0 0 410.69 97.48">
    <path style="fill:#004a97;" d="M303.42,10.75V25.51h9.69v12.6h-9.87l.17,22.16c.07,8.84,8,13.51,7.25,13.52l-17.21-.05s-4.12-3.57-4.07-11.13V38.07l-7.92,0c-.06-2.77.07-8.89,0-8.92s10.7-8,18.12-18.44Z"/>
    <path style="fill:#004a97;fill-rule:evenodd;" d="M196.52,48.31a11.14,11.14,0,1,1,11.14,11.14,11.14,11.14,0,0,1-11.14-11.14Zm-14.75,0A25.89,25.89,0,1,1,207.66,74.2a25.89,25.89,0,0,1-25.89-25.89Z"/>
    <path style="fill:#004a97;fill-rule:evenodd;" d="M328.85,48.36A11.14,11.14,0,1,1,340,59.5a11.14,11.14,0,0,1-11.14-11.14Zm-14.75,0A25.89,25.89,0,1,1,340,74.25a25.89,25.89,0,0,1-25.89-25.9Z"/>
    <path style="fill:#004a97;fill-rule:evenodd;" d="M277.44,39.9h0v.44C277.48,29.63,268,23,258.15,23c-6.32,0-14.83,4-19.27,8.63l-.06,42.08H253l0-32.09a5.26,5.26,0,0,1,5.35-5.16,5,5,0,0,1,5.07,5.19l.06,32.12,14.09-.05,0-33.37"/>
    <path style="fill:#004a97;" d="M161.71,41.9a5.35,5.35,0,0,0-10.7,0v3.71l0,28.1H137L137,45.83l0-3.92a5.35,5.35,0,0,0-10.7,0v3.71l.09,28.1H112.34l-.08-43.26c5.26-3.11,11.86-7.22,18.15-7.33,3.62-.07,8.34-.08,12.52,3.05,5.41-4.06,17.68-4.51,23.48-1.21a18,18,0,0,1,9.24,16v4.82l0,27.89h-14l.07-28.1Z"/>
    <path style="fill:#004a97;fill-rule:evenodd;" d="M67.79,48.8A11.14,11.14,0,1,1,78.93,59.94,11.14,11.14,0,0,1,67.79,48.8ZM89.85,3.42h13.91V59.06C97.08,67.7,89.34,75.49,78.93,74.69h0a25.89,25.89,0,1,1,0-51.78A31,31,0,0,1,89.78,25.3Z"/>
    <path style="fill:#004a97;" d="M44.28,38.48a87.7,87.7,0,0,1-26.41,3.91C20,29.12,28.67,21.74,38.26,18.4a32,32,0,0,1,13.92-1.57,33.78,33.78,0,0,1,14.24,5.1q0-8.16,0-16.32,0-1.12,0-2.25c0-.09-.28-.14-.35-.16q-1.23-.47-2.48-.87A48.36,48.36,0,0,0,58.77,1,48.74,48.74,0,0,0,3.62,67.19a48.83,48.83,0,0,0,56,29.07,48.42,48.42,0,0,0,4.87-1.38q.9-.31,1.79-.65c.11,0,.09,0,.09-.14q0-3.71,0-7.43,0-5.4.05-10.79a33.14,33.14,0,0,1-31.84,1.64A32.16,32.16,0,0,1,18,56H44.36Z"/>
    <path style="fill:#004a97;fill-rule:evenodd;" d="M410.65,39.9h0v.45c0-10.72-9.46-17.35-19.3-17.35-6.31,0-14.83,4-19.27,8.63L372,73.71h14.15l0-32.09a5.26,5.26,0,0,1,5.35-5.16,5,5,0,0,1,5.07,5.19l.06,32.12,14.09-.06,0-33.36"/>
</svg>
