<svg xmlns="http://www.w3.org/2000/svg" viewBox="0 0 296.84 296.84">
    <g id="Layer_2" data-name="Layer 2">
        <g id="Layer_1-2" data-name="Layer 1">
            <g id="Layer_3" data-name="Layer 3">
                <circle style="fill:#fff;" cx="148.42" cy="148.42" r="100.91"/>
            </g>
            <path style="fill:#bf311a;" d="M111,210.39c-1.07.35-17.15-.12-14.13-13.57s28.27-20.6,32.63-18.46c-6.36,2.48-19.13,3.69-25.23,17.07-6,13.22,6.65,14.75,6.74,15"/>
            <path style="fill:#0069aa;" d="M135,220.06c-.42,1-11.11,13.06-19.48,2.11s2.39-34.88,6.84-36.86c-2.21,6.48-9.48,17-3.15,30.31,6.26,13.09,15.57,4.4,15.79,4.44"/>
            <path style="fill:#008752;" d="M157.45,201.44c.9.68,9.75,14.13-3,19.37s-33.08-11.34-33.84-16.14c5.68,3.79,14,13.57,28.48,10.87,14.27-2.64,8.26-13.9,8.36-14.1"/>
            <path style="fill:#ef3e42;" d="M216.13,130.82c-31.9,3.29-24.22,0-27.55-13.74-1.85.2-18.18,18.89-22.77,8.86,1.44-12.9,2-15.32,3.35-28.2-4.4,2.11-8,6.59-15.15,7.92a4.4,4.4,0,0,1-2-.14c-8.52-5.63-7.84-20.3-11-42.54-13.31,19.39-15.73,30.53-16.06,35.1-.47,2-4,21.1,19.85,59,9.72,15.43,2,31.46.81,33.53,3.55-3.49,24.78-21.11,23.21-47.09,5.54,15.42,4.86,32.09-4,46-2.86,4.5-1.46,2.45-4.24,5.73,9.69-3.07,34.29,1,39.33-1-2.94-3.89-17.59-6.61-9-12.43,12.41-11.49,1.29-1.89,13.94-12.7-.06-.35,17-11.71,17-11.94-14.94-3.35-6.47-14.61-5.65-26.39"/>
            <path style="fill:#ef3e42;" d="M127.9,143.59c2,2.11-21-31.48-9.89-50.82,0,0-30.23,26.84.55,43.77,0,0,6.34,3.81,9.34,7"/>
            <g id="Outline">
                <path style="fill:#ef3e42;" d="M148.42,256.18A107.76,107.76,0,1,1,256.18,148.42,107.88,107.88,0,0,1,148.42,256.18Zm0-206.15a98.39,98.39,0,1,0,98.39,98.39A98.5,98.5,0,0,0,148.42,50Z"/>
                <rect style="fill:none;" x="128.09" y="256.18" width="40.66" height="40.66"/>
                <rect style="fill:none;" x="256.18" y="128.09" width="40.66" height="40.66"/>
                <rect style="fill:none;" x="128.09" width="40.66" height="40.66"/>
                <rect style="fill:none;" y="128.09" width="40.66" height="40.66"/>
            </g>
        </g>
    </g>
</svg>
