<svg xmlns="http://www.w3.org/2000/svg" viewBox="0 0 732.8 440.2">
    <path style="fill:#004a7f;" d="M732.8,437.28c-1-15.29-.8-23.89-.8-38.15V332.59H708v50.32c0,6.66,0,17.05-2.86,24.42-3.67,9.41-11.27,15.13-20.9,15.13-5.37,0-12.29-2.07-15.69-6.63-3.59-4.9-3.67-11-3.67-19.19v-64H640.16v65.76c0,9.46.47,17.21,3.92,23.84,4.64,9.36,14,17.21,30.37,17.21,12.7,0,27-5.14,35.62-20.21,0,0,.13,10.14.69,18.09Z"/>
    <rect style="fill:#004a7f;" x="294.39" y="336.05" width="23.73" height="101.5"/>
    <rect style="fill:#004a7f;" x="294.39" y="306.22" width="23.73" height="20.65"/>
    <path style="fill:#004a7f;" d="M497.63,424.55c-14.64,0-27.14-10.08-29.17-34.07,26.24-.95,50.71-6.43,67.48-12.58,0-12.68-2.87-49.37-45.19-49.37-28,0-50.22,23.07-50.22,56.53,0,31.84,22,54.86,52.07,54.86,17.54,0,30.76-7.19,38.6-11.37l-7.14-13C517.42,419.28,507.7,424.55,497.63,424.55ZM491.35,342c9.86,0,19.13,7.33,20,27a147.6,147.6,0,0,1-42.91,6.3C470.6,348,481.65,342,491.35,342Z"/>
    <path style="fill:#004a7f;" d="M426.09,348.21c-4.54-9.37-14-17.21-30.14-17.21-12.46,0-26.45,5.15-34.92,20.22,0,0-.31-6.81-.84-17.28H336.9V437.29H363V387.47c0-6.66,0-17,2.8-24.41,3.6-9.42,11.06-15.13,20.49-15.13,5.27,0,11.84,2.07,15.17,6.64,3.52,4.89,3.6,11,3.6,19.19v63.52h24.84V372C429.93,362.59,429.46,354.83,426.09,348.21Z"/>
    <path style="fill:#004a7f;" d="M277.48,422.27a18.63,18.63,0,0,1-8.65,1.37c-8.9-.84-10.95-8.6-10.95-21.81V351.38h18.67V335.74H256.85V305H231.72v30.73h-9.26v15.06H231v.59h0v55c0,19.68,9.3,33.35,28.73,32.82,7.64-.21,14.54-.93,21.12-3.82Z"/>
    <path style="fill:#004a7f;" d="M602,371.1V365c0-19.24-24.47-28.75-48.41-10.15L545,342.25c21.42-17.25,64.93-22.37,77.57,4.87,2.61,5.61,3.85,10.26,3.85,21.06v31c0,10.78-.38,22.22,1.44,38.15H604.57c-.55-6.11-.59-15.78-.59-15.78-6.66,11.66-20.56,17.9-36.13,17.9-21.61,0-30-14-30-28.16C537.87,389.18,562.58,374.88,602,371.1Zm-40.42,37.54c-.07,9.91,8.86,15.15,17,15.15a20.75,20.75,0,0,0,18.93-11.57c4-7.45,4.54-15.94,4.54-26.36v-3.44C584.39,385.13,561.61,389.71,561.61,408.65Z"/>
    <path style="fill:#004a7f;" d="M188,371.1V365c0-19.24-24.47-28.75-48.41-10.15L131,342.25c21.42-17.25,64.93-22.37,77.57,4.87,2.6,5.61,3.86,10.26,3.86,21.06v31c0,10.78-.38,22.22,1.43,38.15H190.56c-.56-6.11-.59-15.78-.59-15.78-6.65,11.66-20.55,17.9-36.14,17.9-21.6,0-30-14-30-28.16C123.87,389.18,148.57,374.88,188,371.1ZM147.6,408.65c-.07,9.91,8.86,15.15,17,15.15a20.75,20.75,0,0,0,18.94-11.57c4-7.45,4.53-15.94,4.53-26.36v-3.44C170.38,385.13,147.6,389.71,147.6,408.65Z"/>
    <path style="fill:#004a7f;" d="M61.2,379.9h30v37.95a45.35,45.35,0,0,1-24.58,4.82C38.46,420,29.8,389.61,29.8,369.31c0-32.82,14.3-55.88,49.1-55.88,11.74,0,18.19,2.54,25.38,6.38L110.87,303c-10-5.42-19.7-8.22-35.44-8C34,295.61,0,323.89,0,368.36c0,42.21,23.36,71.83,67.64,71.83a81.38,81.38,0,0,0,46.27-14.29V364.45H64.62Z"/>
    <path style="fill:#004a7f;" d="M602.33,119c-.29,1.12-1,3.53-1,3.53s-28.91,127.35-244,140l-.55,0a15.31,15.31,0,0,0,1.8.55,257.63,257.63,0,0,0,58.19,6.6c103.38,0,187.19-59.42,187.19-132.72A95.46,95.46,0,0,0,602.33,119Z"/>
    <path style="fill:#004a7f;" d="M104.25,229.47l13.51,37.95,13.68-37.95h8.27l-20.25,52.1h-5.9l-20.3-52.1Z"/>
    <rect style="fill:#004a7f;" x="144.18" y="240.14" width="9.25" height="41.4"/>
    <rect style="fill:#004a7f;" x="144.18" y="227.31" width="9.25" height="7.98"/>
    <path style="fill:#004a7f;" d="M171.51,226.91v54.63h-9.26V226.91Z"/>
    <path style="fill:#004a7f;" d="M189.37,226.91v54.63h-9.25V226.91Z"/>
    <path style="fill:#004a7f;" d="M280.14,226.9v54.66h-8l-.4-6.32A13.07,13.07,0,0,1,260,282.3c-9.67,0-14.45-8.73-14.45-18.95,0-13.11,7.53-19.11,15-19.11a11.45,11.45,0,0,1,10.57,6.21V226.9Zm-24.52,36.37c0,5.41,1.08,13.08,7.6,13.08,7.16,0,8-9.59,8-13.29,0-5.46-1.26-12.88-7.69-12.88-4.51,0-7.87,4.28-7.87,13Z"/>
    <path style="fill:#004a7f;" d="M214.94,277.09c-5,0-9.22-3.42-9.9-11.58a77.55,77.55,0,0,0,22.9-4.26c0-4.3-1-16.77-15.34-16.77-9.49,0-17,7.83-17,19.2,0,10.81,7.46,18.62,17.68,18.62,6,0,10.45-2.43,13.11-3.85L223.91,274C221.66,275.3,218.35,277.09,214.94,277.09Zm-2.14-28c3.36,0,6.51,2.49,6.81,9.15A50.52,50.52,0,0,1,205,260.37C205.76,251.1,209.51,249.07,212.79,249.07Z"/>
    <path style="fill:#004a7f;" d="M305.36,277.09c-5,0-9.21-3.42-9.9-11.58a77.64,77.64,0,0,0,22.91-4.26c0-4.3-1-16.77-15.34-16.77-9.5,0-17.05,7.83-17.05,19.2,0,10.81,7.47,18.62,17.68,18.62,6,0,10.45-2.43,13.1-3.85L314.34,274C312.09,275.3,308.79,277.09,305.36,277.09Zm-2.13-28c3.35,0,6.5,2.49,6.8,9.15a50.47,50.47,0,0,1-14.57,2.14C296.19,251.1,299.94,249.07,303.24,249.07Z"/>
    <path style="fill:#008459;" d="M574.51,87.27c-10.16,1.18-31.69,2-60.44-6.11-40.14-12.36-62.89-18.86-130.8,3.55,10.37-6.94,37.71-23.35,70-27.82a138.05,138.05,0,0,1,60.75,5,194.59,194.59,0,0,0,62.06,6.78c-.17-.22-.34-.44-.52-.65l.14.1c-1.32-1.64-5.51-5.9-7.07-7.47l.07,0-.58-.55-.08-.08h0C530.33,23.83,466.75,0,394.66,0,278.91,0,185.09,61.4,185.09,137.13A93.74,93.74,0,0,0,193,174.58c-.13-.7-.25-1.4-.36-2.11q-.31-2.08-.5-4.15c-.08-.33-.18-.65-.26-1C188.83,125,221.33,77,297.61,53.66,339.3,40.92,371.83,40,388.21,40.75,313.63,58,260.58,96.92,266.33,132.64c6.33,39.36,81.65,60,168.24,46,42.86-6.89,80.38-21,106.64-38.2q-3.15.68-6.46,1.23c-10.12,1.48-31.62,2.92-60.59-4.34-40.49-11.18-63.41-17-130.64,7.37,10.17-7.24,37-24.44,69.18-29.85a138.07,138.07,0,0,1,60.87,3.27c43.52,10.36,76.56,4.32,94.27-1.14a67.3,67.3,0,0,0,14.88-6.37c1.13-1.57,2.73-3.61,3.69-5.19-21.62,10.29-49.68,14.94-87.56,4.5-23.8-6.56-41.21-11.66-63.64-10.72-34.36.34-60.25,9-71,14.09-.56.21.44-.21-.11,0,0,0,55.55-44.92,134.06-22.77,34.62,9.77,65.46,6.3,89.2-1.53-.59-1.13-1.19-2.17-1.77-3.13h-.05l-.46-.69-4,1Q577.83,86.82,574.51,87.27Z"/>
</svg>
