<svg xmlns="http://www.w3.org/2000/svg" viewBox="0 0 186.6 278.47">
    <path d="M141.79,20.32A69.39,69.39,0,0,0,23.34,69.39v77.23a69.39,69.39,0,1,0,138.77,0V69.39A68.93,68.93,0,0,0,141.79,20.32Zm14.8,126.29a63.86,63.86,0,0,1-127.73,0V69.39a63.86,63.86,0,0,1,127.73,0Z" fill="#ed1941"/>
    <path d="M95.5,133.23s-.88-21.6-.88-23.75,1.82-2.89,4-2.42,22.33,4.57,22.33,4.57-1.54-4.37-2.61-7.6.33-3.81,1.08-4.49L141.92,80l-3.56-1.75c-2.16-1-1.82-2.83-1.49-4l4.3-13.81s-9.77,2.12-12,2.45c-1.75.27-2.36-.54-2.9-1.75l-2.81-6.72-11.78,13c-2.22,2-4.36.47-4-1.88.38-2.14,5.91-27.65,5.91-27.65s-6.11,3.63-8.13,4.85-3.08,1-4.16-.94S93,25.22,92.72,24.69c-.27.53-7.57,15.15-8.63,17.07s-2.14,2.15-4.16.94-8.13-4.85-8.13-4.85,5.53,25.51,5.91,27.65c.4,2.36-1.75,3.91-4,1.88L62,54.4l-2.81,6.72c-.55,1.22-1.15,2-2.9,1.75-2.21-.33-12-2.45-12-2.45l4.3,13.81c.34,1.21.67,3-1.49,4L43.53,80,66.07,99.54c.74.68,2.14,1.26,1.08,4.49s-2.61,7.6-2.61,7.6,20.17-4.1,22.33-4.57,4,.27,4,2.42-.88,23.75-.88,23.75Z" fill="#ed1941"/>
    <path d="M73.6,155.08a16.39,16.39,0,1,0-16.39,16.39q.72,0,1.42-.06-.05-.65-.05-1.31t.06-1.44a14.11,14.11,0,0,1-1.43.07,13.64,13.64,0,1,1,4.25-.67,13.76,13.76,0,0,0-.15,2q0,.42,0,.84A16.39,16.39,0,0,0,73.6,155.08Z" fill="#0081c8"/>
    <path d="M144.62,155.08a16.39,16.39,0,0,1-32.71,1.44,13.6,13.6,0,0,1,2.82.6,13.67,13.67,0,1,0-.12-2.88,16.27,16.27,0,0,0-2.71-.46,16.39,16.39,0,0,1,32.73,1.31Z" fill="#ed1941"/>
    <path d="M110.48,156.45A13.66,13.66,0,0,1,124,168.07a13.67,13.67,0,0,0,2.82.6,16.39,16.39,0,0,0-16.33-14.95c-.48,0-.95,0-1.42.06,0,.43.05.87.05,1.31s0,1-.06,1.44A14.08,14.08,0,0,1,110.48,156.45Zm13.63,14.5a13.66,13.66,0,1,1-17.88-13.83,13.9,13.9,0,0,0,.15-2c0-.28,0-.56,0-.84a16.39,16.39,0,1,0,20.46,17.17A16.47,16.47,0,0,1,124.11,170.95Z" fill="#00a651"/>
    <path d="M73.54,156.52c0-.47.06-1,.06-1.44s0-.87-.05-1.31c.47,0,.94-.06,1.42-.06A16.39,16.39,0,0,1,91.3,168.67a13.67,13.67,0,0,1-2.82-.6A13.66,13.66,0,0,0,75,156.45,14.08,14.08,0,0,0,73.54,156.52Zm17.77,14.89a16.39,16.39,0,1,1-20.46-17.17c0,.28,0,.56,0,.84a13.85,13.85,0,0,1-.15,2A13.66,13.66,0,1,0,88.6,170.95,16.35,16.35,0,0,0,91.31,171.41Z" fill="#fcb131"/>
    <path d="M92.72,138.69a16.39,16.39,0,0,0-16.34,15.08,16.25,16.25,0,0,1,2.71.46A13.66,13.66,0,1,1,97,168.07a13.76,13.76,0,0,0-.15,2q0,.42,0,.84a16.39,16.39,0,0,0-4.12-32.25Zm0,30a13.66,13.66,0,0,1-13.51-11.62,13.62,13.62,0,0,0-2.82-.6,16.39,16.39,0,0,0,16.33,14.95q.72,0,1.42-.06-.05-.65-.05-1.31t.06-1.44A14.1,14.1,0,0,1,92.72,168.74Z" fill="#231f20"/>
    <path d="M23,245.49c.19,1.3,1.2,1.87,2.62,1.87s2.28-.46,2.28-1.56-.41-1.44-1.8-1.75l-1.75-.38c-2.16-.48-2.93-1.7-2.93-3.36,0-2.57,2.14-3.46,4.37-3.46,2.45,0,4,.91,4.18,3.12l-2.18.22c-.07-1.13-.86-1.7-2.18-1.7s-2,.6-2,1.61.43,1.44,1.61,1.68l1.63.34c2,.41,3.22,1.56,3.22,3.5C30,248,28.08,249,25.49,249s-4.15-1-4.49-3Z" fill="#9a9b99"/>
    <path d="M32.56,248.68V237.13h4.06c3.19,0,4.92,1.18,4.92,4s-1.82,4.15-4.87,4.15H34.74v3.38Zm2.18-5.16h1.7c1.94,0,2.83-.55,2.83-2.38,0-1.58-.89-2.23-2.81-2.23H34.74Z" fill="#9a9b99"/>
    <path d="M43.26,242.94c0-3.91,2.16-6.1,5.52-6.1s5.5,2.18,5.5,6.1-2.16,6-5.5,6S43.26,246.81,43.26,242.94Zm2.3,0c0,2.74,1.08,4.3,3.22,4.3s3.19-1.56,3.19-4.3-1.13-4.22-3.19-4.22S45.56,240.21,45.56,242.89Z" fill="#9a9b99"/>
    <path d="M63.9,248.68a2.85,2.85,0,0,1-.6-1.27l-.38-1.54a1.72,1.72,0,0,0-2-1.56H59.06v4.37H56.87V237.13h4.58c2.83,0,4.27,1.13,4.27,3.48a2.71,2.71,0,0,1-2.93,2.88v.1a2.21,2.21,0,0,1,2.33,1.78l.5,1.87a3.44,3.44,0,0,0,.74,1.44Zm-4.85-6.07h2.11c1.63,0,2.26-.55,2.26-1.82s-.7-1.87-2.26-1.87H59.06Z" fill="#9a9b99"/>
    <path d="M71.26,248.68V239H67.37v-1.82h10V239H73.47v9.72Z" fill="#9a9b99"/>
    <path d="M84.7,248.68V237.13h4.06c3.19,0,4.92,1.18,4.92,4s-1.82,4.15-4.87,4.15H86.88v3.38Zm2.18-5.16h1.7c1.94,0,2.83-.55,2.83-2.38,0-1.58-.89-2.23-2.81-2.23H86.88Z" fill="#9a9b99"/>
    <path d="M105.64,248.68h-2.35L102.2,246H97L96,248.68h-2.3l4.7-11.54H101Zm-7.95-4.39h3.87l-.82-2.06a20.28,20.28,0,0,1-1.06-3.46h-.1a19.53,19.53,0,0,1-1.08,3.43Z" fill="#9a9b99"/>
    <path d="M114.56,248.68a2.86,2.86,0,0,1-.6-1.27l-.38-1.54a1.72,1.72,0,0,0-2-1.56h-1.85v4.37h-2.18V237.13h4.58c2.83,0,4.27,1.13,4.27,3.48a2.71,2.71,0,0,1-2.93,2.88v.1a2.21,2.21,0,0,1,2.33,1.78l.5,1.87a3.45,3.45,0,0,0,.74,1.44Zm-4.85-6.07h2.11c1.63,0,2.26-.55,2.26-1.82s-.7-1.87-2.26-1.87h-2.11Z" fill="#9a9b99"/>
    <path d="M121.91,248.68V239H118v-1.82h10V239h-3.94v9.72Z" fill="#9a9b99"/>
    <path d="M136.85,243.21a17.86,17.86,0,0,1,1.56,2.52h.1s-.1-1.8-.1-3.58v-5h2.18v11.54h-2.21l-4.49-6a20.9,20.9,0,0,1-1.73-2.69h-.1s.12,1.73.12,3.58v5.09H130V237.13h2.4Z" fill="#9a9b99"/>
    <path d="M152.1,248.68h-8.21V237.13h8.21V239h-6v3.17h5.28v1.78h-5.28v3h6Z" fill="#9a9b99"/>
    <path d="M161.78,248.68a2.84,2.84,0,0,1-.6-1.27l-.38-1.54a1.72,1.72,0,0,0-2-1.56h-1.85v4.37h-2.18V237.13h4.58c2.83,0,4.27,1.13,4.27,3.48a2.71,2.71,0,0,1-2.93,2.88v.1a2.21,2.21,0,0,1,2.33,1.78l.5,1.87a3.45,3.45,0,0,0,.74,1.44Zm-4.85-6.07H159c1.63,0,2.26-.55,2.26-1.82s-.7-1.87-2.26-1.87h-2.11Z" fill="#9a9b99"/>
    <path d="M0,278.18V266.63H4.06c3.19,0,4.92,1.18,4.92,4s-1.82,4.15-4.87,4.15H2.18v3.38ZM2.18,273h1.7c1.94,0,2.83-.55,2.83-2.38,0-1.58-.89-2.23-2.81-2.23H2.18Z" fill="#9a9b99"/>
    <path d="M20.94,278.18H18.59l-1.08-2.71H12.35l-1.06,2.71H9l4.7-11.54h2.62ZM13,273.79h3.86L16,271.72A20.2,20.2,0,0,1,15,268.27h-.1a19.53,19.53,0,0,1-1.08,3.43Z" fill="#9a9b99"/>
    <path d="M29.86,278.18a2.85,2.85,0,0,1-.6-1.27l-.38-1.54a1.72,1.72,0,0,0-2-1.56H25v4.37H22.83V266.63h4.58c2.83,0,4.27,1.13,4.27,3.48A2.71,2.71,0,0,1,28.76,273v.1a2.21,2.21,0,0,1,2.33,1.78l.5,1.87a3.44,3.44,0,0,0,.74,1.44ZM25,272.11h2.11c1.63,0,2.26-.55,2.26-1.82s-.7-1.87-2.26-1.87H25Z" fill="#9a9b99"/>
    <path d="M37.21,278.18v-9.72H33.33v-1.82h10v1.82H39.42v9.72Z" fill="#9a9b99"/>
    <path d="M53.52,278.18H45.31V266.63h8.21v1.82h-6v3.17h5.28v1.78H47.49v3h6Z" fill="#9a9b99"/>
    <path d="M63,272.71a17.82,17.82,0,0,1,1.56,2.52h.1s-.1-1.8-.1-3.58v-5h2.18v11.54H64.55l-4.49-6a20.89,20.89,0,0,1-1.73-2.69h-.1s.12,1.73.12,3.58v5.09H56.17V266.63h2.4Z" fill="#9a9b99"/>
    <path d="M80.6,278.18H78.25l-1.08-2.71H72l-1.06,2.71h-2.3l4.7-11.54H76Zm-7.94-4.39h3.86l-.82-2.06a20.2,20.2,0,0,1-1.06-3.46h-.1a19.54,19.54,0,0,1-1.08,3.43Z" fill="#9a9b99"/>
    <path d="M84.67,266.63v11.54H82.49V266.63Z" fill="#9a9b99"/>
    <path d="M95,278.18a2.87,2.87,0,0,1-.6-1.27L94,275.37a1.72,1.72,0,0,0-2-1.56H90.12v4.37H87.94V266.63h4.58c2.83,0,4.27,1.13,4.27,3.48A2.71,2.71,0,0,1,93.87,273v.1a2.21,2.21,0,0,1,2.33,1.78l.5,1.87a3.44,3.44,0,0,0,.74,1.44Zm-4.85-6.07h2.11c1.63,0,2.26-.55,2.26-1.82s-.7-1.87-2.26-1.87H90.12Z" fill="#9a9b99"/>
    <path d="M107.92,278.18H99.71V266.63h8.21v1.82h-6v3.17h5.28v1.78h-5.28v3h6Z" fill="#9a9b99"/>
    <path d="M117,275c.19,1.3,1.2,1.87,2.62,1.87s2.28-.46,2.28-1.56-.41-1.44-1.8-1.75l-1.75-.38c-2.16-.48-2.93-1.7-2.93-3.36,0-2.57,2.14-3.46,4.37-3.46,2.45,0,4,.91,4.18,3.12l-2.18.22c-.07-1.13-.87-1.7-2.19-1.7s-2,.6-2,1.61.43,1.44,1.61,1.68l1.63.34c2,.41,3.22,1.56,3.22,3.5,0,2.42-1.94,3.36-4.54,3.36s-4.15-1-4.49-3Z" fill="#9a9b99"/>
    <path d="M126.55,278.18V266.63h4.06c3.19,0,4.92,1.18,4.92,4s-1.82,4.15-4.87,4.15h-1.92v3.38Zm2.18-5.16h1.7c1.94,0,2.83-.55,2.83-2.38,0-1.58-.89-2.23-2.81-2.23h-1.73Z" fill="#9a9b99"/>
    <path d="M137.25,272.44c0-3.91,2.16-6.1,5.52-6.1s5.5,2.18,5.5,6.1-2.16,6-5.5,6S137.25,276.31,137.25,272.44Zm2.3,0c0,2.74,1.08,4.3,3.22,4.3s3.19-1.56,3.19-4.3-1.13-4.22-3.19-4.22S139.56,269.71,139.56,272.39Z" fill="#9a9b99"/>
    <path d="M157.9,278.18a2.85,2.85,0,0,1-.6-1.27l-.38-1.54a1.72,1.72,0,0,0-2-1.56h-1.85v4.37h-2.18V266.63h4.58c2.83,0,4.27,1.13,4.27,3.48A2.71,2.71,0,0,1,156.8,273v.1a2.21,2.21,0,0,1,2.33,1.78l.5,1.87a3.42,3.42,0,0,0,.74,1.44Zm-4.85-6.07h2.11c1.63,0,2.26-.55,2.26-1.82s-.7-1.87-2.26-1.87h-2.11Z" fill="#9a9b99"/>
    <path d="M165.25,278.18v-9.72h-3.89v-1.82h10v1.82h-3.94v9.72Z" fill="#9a9b99"/>
    <path d="M175.53,266.63v11.54h-2.18V266.63Z" fill="#9a9b99"/>
    <path d="M178.8,278.18V266.63h7.8v1.82H181v3.31h4.87v1.87H181v4.54Z" fill="#9a9b99"/>
    <path d="M162.11,258.51H23.34a.88.88,0,0,1,0-1.75H162.11a.88.88,0,0,1,0,1.75Z" fill="#9a9b99"/>
</svg>
