<svg xmlns="http://www.w3.org/2000/svg" viewBox="0 0 372.75 88.61">
    <path style="fill:#ed1a3b;" d="M31.76,3.48H0V17.84H9.35V61.35s0,27.19,28.72,27.19c0,0,12.18.22,19.36-9.79,0,0,6.09,9.79,17.62,9.79,0,0,10.88,1.09,18.27-5.66,0,0,15.23-10.22,15-41.77,0,0-.44-23.71-6.09-37.63H76.11V17.84H84A89.23,89.23,0,0,1,88.11,44.6,42,42,0,0,1,84,63.09s-2.8,6.74-8.92,6.74c0,0-5.44-.22-5.22-6.74V3.48H38.07V17.84h9.35V62s0,7.81-7.83,7.81c0,0-7.83,0-7.83-7.81Z"/>
    <path style="fill:#ed1a3b;" d="M128.19,10s13.22,0,13.22,10.22c0,0,.05,10.22-13.22,10.22,0,0-13.27,0-13.27-10.22C114.92,20.18,114.81,10,128.19,10Z"/>
    <path style="fill:#ed1a3b;" d="M112.47,32.2h25.89V66.46s0,3.92,3.59,3.92A10.49,10.49,0,0,0,149,65.59s3.92-5,3.92-9.14V15s.54-15,20.67-15c0,0,20-.65,20,18.82,0,0,1.09,9.14-6.31,22.19,0,0-3.26,6.09-7,11.64,0,0-2.72,4.24-5.33,7.94a8.69,8.69,0,0,0-2.07,5.22,4.66,4.66,0,0,0,5,4.89,12.45,12.45,0,0,0,8.16-4,35.81,35.81,0,0,0,8.16-13.05,59.67,59.67,0,0,0,4.68-21.43h19a20.54,20.54,0,0,0,.65,3.81s.65,2.94,4.46,8.16c0,0,5.33,7.61,7,10.44a26.79,26.79,0,0,1,4,13.49s-.11,7.51-5.33,12.73c0,0-5.87,7.29-14.47,7.29A26.32,26.32,0,0,1,203,85.17s-6.53-3.48-9.35-7.4a1.28,1.28,0,0,0-1.06-.44,1.77,1.77,0,0,0-1.06.46,38.93,38.93,0,0,1-8,6.39,24.74,24.74,0,0,1-13.38,3.92s-7.18,0-11.53-4.13c0,0-3.81-3.15-4.57-6.85a.94.94,0,0,0-.82-.63,1.6,1.6,0,0,0-.92.57A45.09,45.09,0,0,1,144.67,84,19.75,19.75,0,0,1,132,88.11s-7.29.11-11.09-3.81a13.5,13.5,0,0,1-4.24-9.35V44.82s.22-2.83-4.24-2.83Zm89.74,29.37c-.87,2.23-2.07,4.68-2.07,4.68a4.67,4.67,0,0,0-.44,1.36,4.74,4.74,0,0,0,.49,1.41,7.88,7.88,0,0,0,2.39,2.45,7.17,7.17,0,0,0,3.92,1.2,5.33,5.33,0,0,0,4.41-2.34,7.94,7.94,0,0,0,1.47-4.24,9.38,9.38,0,0,0-1.09-3.48c-.82-1.74-2.5-4.89-2.5-4.89-1-1.63-2-3.7-2-3.7-.46-1.2-.9-1-.9-1-.44,0-.84,1.25-.84,1.25C203.51,58.58,202.21,61.57,202.21,61.57Zm-29-19.39a6,6,0,0,0,.87-1c3.7-5.33,6.47-15.28,6.47-15.28a29.1,29.1,0,0,0,1-6.58,14.65,14.65,0,0,0-1-4.84c-1.17-2.39-2.88-2.34-2.88-2.34-2.2,0-3.86,2.94-3.86,2.94-1.52,2.53-1.52,7-1.52,7V40.47C172.29,43,173.22,42.18,173.22,42.18Z"/>
    <path style="fill:#ed1a3b;" d="M363.28,83A4.73,4.73,0,1,1,368,87.66,4.67,4.67,0,0,1,363.28,83ZM368,86.89A3.89,3.89,0,1,0,364.22,83,3.77,3.77,0,0,0,368,86.89Zm-1-1.2h-.82V80.3h2.05c1.27,0,1.9.47,1.9,1.53a1.4,1.4,0,0,1-1.4,1.48l1.53,2.37h-.91L368,83.35H367Zm1-3c.69,0,1.31,0,1.31-.88,0-.67-.61-.79-1.17-.79H367v1.67Z"/>
    <path style="fill:#ed1a3b;" d="M235.49,59.61s.43-13.49,8.48-20.45a30.7,30.7,0,0,1,20.34-7.83s12.51.11,19.25,7.07A26.62,26.62,0,0,1,286.72,42s.76.87,1.41.11c0,0,4-4.68,6.64-6.42,0,0,5.33-4.46,11.31-4.46,0,0,4.89-.11,7.61,2.5a21.45,21.45,0,0,1,4.89,6.09,1.29,1.29,0,0,0,2.18.11,40.78,40.78,0,0,1,5.87-5.11,22,22,0,0,1,12.29-3.92s6.42.22,9.46,3.26c0,0,5.33,4.24,5.33,10.12V74.51s0,3.7,3.26,3.81h3.26v9.35H342.74S332.19,87.56,332.19,76V54.39s0-4.57-5.66-4.57c0,0-6.31.11-6.31,5.33V87.67H298.69V54.28s-.11-3.15-2.61-3.15a6.23,6.23,0,0,0-3.59,2,2.36,2.36,0,0,0-.54,2.5,29.4,29.4,0,0,1,.44,4.89s.11,12.29-7.72,19.47a29.39,29.39,0,0,1-20.23,8.16s-12.51,0-19.69-7.18A28.7,28.7,0,0,1,235.49,59.61ZM264,73.51s3.59.16,4.89-2.61c0,0,1.52-2.94,1.85-11.2v-.08c-.33-8.27-1.85-11.2-1.85-11.2C267.58,45.63,264,45.8,264,45.8h-.11s-3.59-.16-4.89,2.61c0,0-1.52,2.94-1.85,11.2v.08c.33,8.27,1.85,11.2,1.85,11.2,1.31,2.77,4.89,2.61,4.89,2.61Z"/>
</svg>
