<svg xmlns="http://www.w3.org/2000/svg" viewBox="0 0 194.63 26.33">
    <path style="fill:#231f20;" d="M103.46,8.07V6.29h-2.32v20h2.32v-7.1a6.38,6.38,0,0,0,4.71,2c4.91,0,6.66-4.14,6.66-7.69,0-4.85-2.46-7.64-6.74-7.64A6.25,6.25,0,0,0,103.46,8.07Zm0,5.55c0-3.39,1.74-5.59,4.44-5.59s4.47,2,4.49,5.11a6.39,6.39,0,0,1-1.46,4.78,4.07,4.07,0,0,1-3,1.18C105,19.11,103.46,16.35,103.46,13.63Z"/>
    <path style="fill:#231f20;" d="M119.85,2h-2.32V5H120V2Zm-.08,4.33h-2.15V20.86h2.33V6.29Z"/>
    <path style="fill:#231f20;" d="M125.41,8.08V6.29h-2.32v20h2.32v-7.1a6.39,6.39,0,0,0,4.71,2c4.91,0,6.66-4.14,6.66-7.69,0-4.85-2.46-7.64-6.74-7.64A6.26,6.26,0,0,0,125.41,8.08Zm0,5.55c0-3.39,1.74-5.59,4.44-5.59s4.47,2,4.5,5.11a6.39,6.39,0,0,1-1.47,4.78,4.07,4.07,0,0,1-3,1.18C126.93,19.11,125.41,16.35,125.41,13.63Z"/>
    <path style="fill:#231f20;" d="M138.75,13.63c0,4.84,2.5,7.61,6.85,7.61,3.32,0,5.43-1.6,6.45-4.88l.14-.44h-2.57l-.06.26a3.79,3.79,0,0,1-4,2.93,4.14,4.14,0,0,1-3-1.15,5.37,5.37,0,0,1-1.4-3.67h11v-.42c0-2.74-.73-4.91-2.12-6.28a6.1,6.1,0,0,0-4.46-1.68C141.57,5.91,138.75,9.08,138.75,13.63ZM145.6,8c2.42,0,4,1.62,4.11,4.23h-8.46C141.47,11.06,142.34,8,145.6,8Z"/>
    <polygon style="fill:#231f20;" points="157.31 1.92 155.15 1.92 155.15 20.86 157.48 20.86 157.48 1.92 157.31 1.92"/>
    <path style="fill:#231f20;" d="M163.35,2H161V5.05h2.49V2Zm-.08,4.3h-2.15V20.86h2.32V6.29Z"/>
    <path style="fill:#231f20;" d="M169.16,7.74V6.29h-2.33V20.86h2.33V13a6.71,6.71,0,0,1,.33-2.51A3.8,3.8,0,0,1,173.11,8c2.36,0,3.32,1,3.32,3.42v9.41h2.33V11.43A5.56,5.56,0,0,0,178,8a5.25,5.25,0,0,0-4.6-2.13A5.87,5.87,0,0,0,169.16,7.74Z"/>
    <path style="fill:#231f20;" d="M181.19,13.63c0,4.84,2.5,7.61,6.85,7.61,3.31,0,5.42-1.6,6.45-4.88l.14-.44h-2.57l-.06.26a3.79,3.79,0,0,1-4,2.93,4.14,4.14,0,0,1-3-1.15,5.37,5.37,0,0,1-1.4-3.67h11v-.42c0-2.74-.73-4.91-2.12-6.28A6.1,6.1,0,0,0,188,5.91C184,5.91,181.19,9.08,181.19,13.63ZM188,8c2.42,0,4,1.62,4.11,4.23h-8.46C183.91,11.06,184.78,8,188,8Z"/>
    <path style="fill:#0067b1;" d="M40,1.93H36V5.41h4.12V1.93Zm0,4.36H36V20.87h4.12V6.29Z"/>
    <path style="fill:#0067b1;" d="M47.61,8.19V6.29H43.68V20.87H47.8V13.24c0-2.83.84-4,2.9-4,1.67,0,2.38,1,2.38,3.41v8.22h4.12V11.93c0-3-.63-6-5.3-6A5.13,5.13,0,0,0,47.61,8.19Z"/>
    <path style="fill:#0067b1;" d="M65.29,2h-4v4.3H58.92V9.16h2.36v8.35c0,3.13,2.45,3.53,4.58,3.53a14.35,14.35,0,0,0,2.29-.14h.1V17.56l-.14,0a5.78,5.78,0,0,1-1.18.11c-1.26,0-1.53-.28-1.53-1.55v-7h2.85V6.29H65.4V2Z"/>
    <path style="fill:#0067b1;" d="M69.72,13.6c0,4.58,3,7.66,7.35,7.66a6.52,6.52,0,0,0,6.75-4.91l0-.15H80.19l0,.08a3.11,3.11,0,0,1-3,1.77c-2.12,0-3.22-1.12-3.36-3.4H84.06v-.11c0-.24,0-.47,0-.7A8.64,8.64,0,0,0,82,7.95a6.54,6.54,0,0,0-4.95-2C72.81,5.91,69.72,9.14,69.72,13.6ZM77,9.11c1.68,0,2.57.85,3,2.82H73.85A3,3,0,0,1,77,9.11Z"/>
    <path style="fill:#0067b1;" d="M90.59,8.7V6.29H86.66V20.87h4.12V14.29c0-2,.65-4.49,3.72-4.49a7,7,0,0,1,1.37.14L96,10V6.08l-.08,0a3,3,0,0,0-.89-.14A5.15,5.15,0,0,0,90.59,8.7Z"/>
    <path style="fill:#231f20;" d="M15.26.64a1.47,1.47,0,0,0-.49-.11c-.15,0-.12.46-.12.65V17.77a4.87,4.87,0,0,1-1.47,3.85,4.69,4.69,0,0,1-2.46,1.23l.72,0A11.44,11.44,0,0,0,15.26.64Z"/>
    <path style="fill:#0067b1;" d="M12.55.05a8.27,8.27,0,0,1,1.16.21c.12.09-.09.47-.17.64S5.86,15.83,5.86,15.83a4.88,4.88,0,0,0-.3,4.12A4.72,4.72,0,0,0,7.27,22.1l-.66-.28A11.44,11.44,0,0,1,12.55.05Z"/>
    <circle style="fill:#0067b1;" cx="9.84" cy="18.48" r="4.05"/>
</svg>
