<svg xmlns="http://www.w3.org/2000/svg" viewBox="0 0 252.02 63.11">
    <path style="fill:#231f20;" d="M63.14,21.58a11.07,11.07,0,0,0-1.3-2.53A7.4,7.4,0,0,0,55,15.59a4.06,4.06,0,0,0-.86.2c-1.3.43-2.46,1.4-3.69,1.3.65-3.66-1.19-7.69-4.21-5.33.07,8.33-1.06,17.75-.62,25.75-1.27,1.53-3.69,1.84-4.44,3.93,1.09-.37.44.5.72.73,1,.93,2.46-.27,3.73.2-.65,8.33,0,9.49.43,16.85.07,1.27-.55,2.93.55,3.9,3.14,0,2.83-4.53,2.83-6.66,0-7.09-.87-9.16.06-16.82a34.68,34.68,0,0,0,4.65-2.23,15.45,15.45,0,0,0,5.23-4.8,29.59,29.59,0,0,0,2.49-4.3,14.26,14.26,0,0,0,1.3-6.73M58.73,25c-.38,2.2-2,4.2-3.79,5.89l-.82.8c-1.54,1.5-3.11,3-4.65,3.3,1-3.33-.86-10.29,1.71-13a4.92,4.92,0,0,1,2.94-1.43c2.53-.33,5.26,1,4.62,4.46"/>
    <path style="fill:#231f20;" d="M32.72,2.13C28.58.6,22.5.33,17,.43,12.89.53,8.51-1,5.81,1.1,4,8.56,12.55,6.23,17.92,6.53c-.38,11.06-.17,21.62,2.46,30-4.85-.3-10,.33-14.84-.76C3.93,35.47,2.7,34.21,1,34.67a2.76,2.76,0,0,0-1,2.17v.26a10.53,10.53,0,0,0,.65,3C6.77,43,15,42.67,22.56,42.1a9.1,9.1,0,0,0,4.07,5.3c.41-1,.41-.7,1.57-.5.89-1.73.24-3.87,0-5.43,1.68.33,2.53-.23,4-.1.75.17-.1-1.37,1-.87,2.67-.1,5.26-.23,4.85-3.66-3.25-.83-9.16-.8-12.41-.33-2.36-8-3.14-19.05-1.54-29.68,4.92.37,9.54,1,12.55,3.06-.17-2.56,1.71.57,2.56-1.1.11-3.4-3.93-5.73-6.5-6.66"/>
    <path style="fill:#231f20;" d="M129.26,42.3c-3.93-2.83-5.06-6.53-6.67-12.16-.89-3.1-2-9.26-6-8.79-1.54,2.23-3.11,4.13-4.58,6.32a32.26,32.26,0,0,1-4.27,5.86c-.62-3.2-.31-7.13-1.51-9.79-1.06,0-1.19-.8-2.46-.6-3.49,4.5-6,10-10.66,13.32a13.43,13.43,0,0,1-3.86,1.73c-1-4.17-.62-9.59-2-13.46-1.43-.3-1.95-1.4-2.91-2.1-4.34.23-7.11,1.53-10.74,3.6-.37.2-.79.43-1.2.66-2.91,1.66-8.1,4.2-10.53,7.69a6.48,6.48,0,0,0-1.3,3.9,2.79,2.79,0,0,0,1.3,2.7c2.22,1.16,6.7-1,8.62-2,1.09-.53,2.12-1.1,3.11-1.67,3.69-2.1,6.91-4.36,10.33-6.66C84.3,36,84.68,45.23,91,43.17a23.07,23.07,0,0,0,6.74-4.53c2.12-2,3.65-4.63,5.57-6,.38,2.53,1.23,7.76,3.55,8.2s3-1.8,4.17-3.43c.68-1,1.51-2.16,2.15-3.06,1.74-2.46,3-5,4.31-6.1,1.67,6.23,3.49,12.36,7.86,16.19.31-1.6,1.71,1,3.45.4.17-.53.34-1.07.48-1.6.07-.26.1-.53.17-.8a.67.67,0,0,1-.17-.1M75.52,32.51c-.68.47-1.33.87-1.95,1.27-3.69,2.2-6.49,3-6.94,2.83-1.84-.07,1.54-3.2,2.12-3.7a28.07,28.07,0,0,1,4.82-3.06,26.18,26.18,0,0,1,7.49-2.66c.14,1.17-4.75,4.79-5.54,5.33"/>
    <path style="fill:#231f20;" d="M146.32,38.64a22.55,22.55,0,0,1-3-.1c-5.57-.47-10.7-2.63-7.83-7.5a48.43,48.43,0,0,0,7.83-1.33A16.67,16.67,0,0,0,150.73,26c.92-.93,2.7-3.63,2.53-5-.34-2.66-5.06-3-7.86-2.33a14.2,14.2,0,0,0-2,.66c-4.1,1.6-7.69,4.8-10.09,7-1.68-.17-3.18-.2-4,.5l0,0a4.78,4.78,0,0,0,0,2.53,5.35,5.35,0,0,0,1.47,2.16c0,1.4-.44,3-.21,4.13a10.43,10.43,0,0,0,1.81,3.5c1.91,2.13,6.49,3.59,11,3.76a18.83,18.83,0,0,0,4.54-.33,2.34,2.34,0,0,1,.51-.24c2.94-1.37,5.43-1.5,6.42-4-1.84-.87-5.16.23-8.51.3m-3-15.79a5.3,5.3,0,0,1,3.9-.8c2,.6-.93,2.2-3.9,3.46-2.15.93-4.31,1.7-4.58,1.8a12.48,12.48,0,0,1,4.58-4.46"/>
    <path style="fill:#231f20;" d="M249.52,39.27c-.28-.33-.11-.54-.86-.7a4.18,4.18,0,0,0-1.85-.2,9.54,9.54,0,0,1-3.76-.5,26.41,26.41,0,0,1-2.74-1.13,9.35,9.35,0,0,1-4.68-7.9c0-.93-.86-1.46-.76-2.3.45-2.23-.07-.83-.92-2-.31-.4-1.71-.5-2.15-.8-3.15-2.07-6.67-1-10.36.3l-.54.2c-3.42,1.33-6.77,4.13-9.23,5.73-6.84,4.36-13.51,13.89-15.83-5.53-.75,0-1.16-.8-2-.83-1.88-.1-3.69,3.2-5,5.1-1.67,2.4-2.63,5.1-4.07,6.13-.89-2.3-.89-4.53-1.33-7.86-.31-2.4-.51-6.56-2.87-6.69-1.78-.1-2.9,2.86-3.73,4.2-3.15,5.16-6.39,10.56-10.91,13.06-.51-4-1-5.08-.15-9.21,1-4.76,3.61-10.47-2.07-9.17-1.52,2.67-3.62,5.79-5.65,8.73a4,4,0,0,0-.75,1.66c-.23.72,0,.67.19,1.07.43,1.13-1,5.82,2.51.57.32-.49,1.47-1.94,1.85-2.55a30.59,30.59,0,0,0-.57,6.73c.1,2.4.85,7.36,3.59,7.73s6.53-4.1,8.07-5.93c1.2-1.43,2-2.93,2.94-4.23.48-.63,1.16-1.2,1.61-1.87s.65-1.8,1.61-2.1c.55,5.29,1.51,10.23,5.61,12.42a10.36,10.36,0,0,0,4.44-4.16c1.2-1.77,1.92-4,3.52-5.4a5.12,5.12,0,0,0,.52,2,11.59,11.59,0,0,0,3.35,4.83c2.05,2,3.18,2.67,6.16,2.67,1.57,0,4.27-2.5,6.22-3.46.37,2,2.15,3.27,4,4.06a9,9,0,0,0,7.93-.73,24.81,24.81,0,0,0,7-6c.48-.57,1.17-1.37,1.85-2.27s1.06-.77,1.54-1.6a27.91,27.91,0,0,0,1.13,3,15.81,15.81,0,0,0,1.88,2.6c3.76,4.43,9,5,14.5,4.73,6.39-.27,1.54-1.46.76-2.4m-22.46-9.76c-1.09,1.93-4.38,4.6-6.15,5.93-.31.2-.55.4-.75.53-4.28,3-7.59,3.56-6.39-2.16.44-1.87,3.76-4.36,7.15-5.9,2.39-1.1,4.82-1.73,6.22-1.3,1.81.57,1.26.5-.07,2.9"/>
</svg>
