<svg xmlns="http://www.w3.org/2000/svg" width="12" height="12" viewBox="0 0 12 12"><defs><style>.cls-1{fill-rule:evenodd}</style></defs><path id="download" class="cls-1" d="M682,2055.7v3.63a0.684,0.684,0,0,1-.7.67H670.7a0.685,0.685,0,0,1-.7-0.67v-3.63a0.7,0.7,0,0,1,1.395,0v2.97h9.21v-2.97A0.7,0.7,0,0,1,682,2055.7Zm-6.5.84a0.721,0.721,0,0,0,1,0l2.783-2.72a0.643,0.643,0,0,0-.01-0.94,0.722,0.722,0,0,0-.987.01l-1.587,1.55v-5.77a0.7,0.7,0,0,0-1.4,0v5.77l-1.587-1.55a0.721,0.721,0,0,0-.986-0.01,0.643,0.643,0,0,0-.01.94Z" transform="translate(-670 -2048)"/></svg>